<?xml version="1.0" encoding="UTF-8"?><svg xmlns="http://www.w3.org/2000/svg" xmlns:xlink="http://www.w3.org/1999/xlink" height="640.5833pt" style="width:881px;height:640px;" version="1.1" viewBox="0 0 881 640" width="881.2907pt">
    <defs>
        <filter height="300%" id="f1" width="300%" x="-1" y="-1">
            <feGaussianBlur result="blurOut" stdDeviation="1.1169717654359292"/>
            <feColorMatrix in="blurOut" result="blurOut2" type="matrix" values="0 0 0 0 0 0 0 0 0 0 0 0 0 0 0 0 0 0 .4 0"/>
            <feOffset dx="2.2339435308718585" dy="2.2339435308718585" in="blurOut2" result="blurOut3"/>
            <feBlend in="SourceGraphic" in2="blurOut3" mode="normal"/>
        </filter>
    </defs>
    <g>
        <rect fill="#FEFECE" filter="url(#f1)" height="21.1876" style="stroke: #A80036; stroke-width: 0.8377288240769469;" width="80.9805" x="349.6122" y="4.4679"/>
        <ellipse cx="357.9895" cy="15.0617" fill="#ADD1B2" rx="6.1433" ry="6.1433" style="stroke: #A80036; stroke-width: 0.5584858827179646;"/>
        <path d="M359.6475,18.2119 Q359.3246,18.3777 358.9668,18.4606 Q358.609,18.5435 358.2163,18.5435 Q356.8201,18.5435 356.0827,17.6228 Q355.3454,16.7022 355.3454,14.957 Q355.3454,13.2117 356.0827,12.2867 Q356.8201,11.3617 358.2163,11.3617 Q358.609,11.3617 358.9712,11.449 Q359.3333,11.5362 359.6475,11.702 L359.6475,13.2204 Q359.2984,12.8975 358.9668,12.7448 Q358.6352,12.5921 358.2861,12.5921 Q357.5357,12.5921 357.1517,13.1899 Q356.7678,13.7876 356.7678,14.957 Q356.7678,16.1263 357.1517,16.724 Q357.5357,17.3218 358.2861,17.3218 Q358.6352,17.3218 358.9668,17.1691 Q359.2984,17.0164 359.6475,16.6935 L359.6475,18.2119 Z "/>
        <text fill="#000000" font-size="6.7018" font-style="italic" lengthAdjust="spacingAndGlyphs" textLength="65.3428" x="364.6913" y="13.9621">&lt;&lt;Cooridinator&gt;&gt;</text>
        <text fill="#000000" font-size="6.7018" lengthAdjust="spacingAndGlyphs" textLength="20.1055" x="387.31" y="21.7635">Game</text>
        <rect fill="#FEFECE" filter="url(#f1)" height="21.1876" style="stroke: #A80036; stroke-width: 0.8377288240769469;" width="93.2671" x="497.1921" y="80.9805"/>
        <ellipse cx="505.5693" cy="91.5742" fill="#ADD1B2" rx="6.1433" ry="6.1433" style="stroke: #A80036; stroke-width: 0.5584858827179646;"/>
        <path d="M507.2274,94.7244 Q506.9045,94.8902 506.5467,94.9731 Q506.1889,95.056 505.7962,95.056 Q504.4,95.056 503.6626,94.1354 Q502.9253,93.2148 502.9253,91.4695 Q502.9253,89.7242 503.6626,88.7993 Q504.4,87.8743 505.7962,87.8743 Q506.1889,87.8743 506.5511,87.9615 Q506.9132,88.0488 507.2274,88.2146 L507.2274,89.733 Q506.8783,89.4101 506.5467,89.2574 Q506.2151,89.1047 505.866,89.1047 Q505.1156,89.1047 504.7316,89.7024 Q504.3477,90.3002 504.3477,91.4695 Q504.3477,92.6388 504.7316,93.2366 Q505.1156,93.8344 505.866,93.8344 Q506.2151,93.8344 506.5467,93.6816 Q506.8783,93.5289 507.2274,93.2061 L507.2274,94.7244 Z "/>
        <text fill="#000000" font-size="6.7018" font-style="italic" lengthAdjust="spacingAndGlyphs" textLength="77.6295" x="512.2712" y="90.4747">&lt;&lt;Service Provider&gt;&gt;</text>
        <text fill="#000000" font-size="6.7018" lengthAdjust="spacingAndGlyphs" textLength="15.6376" x="543.2671" y="98.2761">Turn</text>
        <rect fill="#FEFECE" filter="url(#f1)" height="21.1876" style="stroke: #A80036; stroke-width: 0.8377288240769469;" width="72.0447" x="491.4676" y="352.9631"/>
        <ellipse cx="499.8449" cy="363.5569" fill="#ADD1B2" rx="6.1433" ry="6.1433" style="stroke: #A80036; stroke-width: 0.5584858827179646;"/>
        <path d="M501.5029,366.7071 Q501.18,366.8729 500.8222,366.9558 Q500.4644,367.0387 500.0717,367.0387 Q498.6755,367.0387 497.9382,366.118 Q497.2008,365.1974 497.2008,363.4521 Q497.2008,361.7069 497.9382,360.7819 Q498.6755,359.8569 500.0717,359.8569 Q500.4644,359.8569 500.8266,359.9442 Q501.1887,360.0314 501.5029,360.1972 L501.5029,361.7156 Q501.1538,361.3927 500.8222,361.24 Q500.4906,361.0873 500.1416,361.0873 Q499.3911,361.0873 499.0071,361.6851 Q498.6232,362.2828 498.6232,363.4521 Q498.6232,364.6215 499.0071,365.2192 Q499.3911,365.817 500.1416,365.817 Q500.4906,365.817 500.8222,365.6643 Q501.1538,365.5116 501.5029,365.1887 L501.5029,366.7071 Z "/>
        <text fill="#000000" font-size="6.7018" font-style="italic" lengthAdjust="spacingAndGlyphs" textLength="56.4071" x="506.5467" y="362.4573">&lt;&lt;Controller&gt;&gt;</text>
        <text fill="#000000" font-size="6.7018" lengthAdjust="spacingAndGlyphs" textLength="21.2225" x="524.139" y="370.2587">Player</text>
        <rect fill="#FEFECE" filter="url(#f1)" height="21.1876" style="stroke: #A80036; stroke-width: 0.8377288240769469;" width="103.3199" x="378.6534" y="440.0869"/>
        <ellipse cx="387.0307" cy="450.6807" fill="#ADD1B2" rx="6.1433" ry="6.1433" style="stroke: #A80036; stroke-width: 0.5584858827179646;"/>
        <path d="M388.6887,453.8309 Q388.3658,453.9967 388.0081,454.0796 Q387.6503,454.1625 387.2576,454.1625 Q385.8614,454.1625 385.124,453.2418 Q384.3866,452.3212 384.3866,450.5759 Q384.3866,448.8307 385.124,447.9057 Q385.8614,446.9807 387.2576,446.9807 Q387.6503,446.9807 388.0124,447.0679 Q388.3746,447.1552 388.6887,447.321 L388.6887,448.8394 Q388.3397,448.5165 388.0081,448.3638 Q387.6765,448.2111 387.3274,448.2111 Q386.5769,448.2111 386.193,448.8089 Q385.809,449.4066 385.809,450.5759 Q385.809,451.7453 386.193,452.343 Q386.5769,452.9408 387.3274,452.9408 Q387.6765,452.9408 388.0081,452.7881 Q388.3397,452.6354 388.6887,452.3125 L388.6887,453.8309 Z "/>
        <text fill="#000000" font-size="6.7018" font-style="italic" lengthAdjust="spacingAndGlyphs" textLength="87.6823" x="393.7325" y="449.5811">&lt;&lt;Information Holder&gt;&gt;</text>
        <text fill="#000000" font-size="6.7018" lengthAdjust="spacingAndGlyphs" textLength="34.6261" x="420.2606" y="457.3825">Character</text>
        <rect fill="#FEFECE" filter="url(#f1)" height="21.1876" style="stroke: #A80036; stroke-width: 0.8377288240769469;" width="73.7201" x="699.3639" y="189.8852"/>
        <ellipse cx="707.7412" cy="200.479" fill="#ADD1B2" rx="6.1433" ry="6.1433" style="stroke: #A80036; stroke-width: 0.5584858827179646;"/>
        <path d="M709.3992,203.6292 Q709.0764,203.795 708.7186,203.8779 Q708.3608,203.9608 707.9681,203.9608 Q706.5719,203.9608 705.8345,203.0402 Q705.0972,202.1195 705.0972,200.3743 Q705.0972,198.629 705.8345,197.704 Q706.5719,196.779 707.9681,196.779 Q708.3608,196.779 708.7229,196.8663 Q709.0851,196.9535 709.3992,197.1193 L709.3992,198.6377 Q709.0502,198.3148 708.7186,198.1621 Q708.387,198.0094 708.0379,198.0094 Q707.2875,198.0094 706.9035,198.6072 Q706.5195,199.2049 706.5195,200.3743 Q706.5195,201.5436 706.9035,202.1413 Q707.2875,202.7391 708.0379,202.7391 Q708.387,202.7391 708.7186,202.5864 Q709.0502,202.4337 709.3992,202.1108 L709.3992,203.6292 Z "/>
        <text fill="#000000" font-size="6.7018" font-style="italic" lengthAdjust="spacingAndGlyphs" textLength="58.0825" x="714.4431" y="199.3795">&lt;&lt;Structurer&gt;&gt;</text>
        <text fill="#000000" font-size="6.7018" lengthAdjust="spacingAndGlyphs" textLength="30.1582" x="728.4052" y="207.1808">Universe</text>
        <rect fill="#FEFECE" filter="url(#f1)" height="21.1876" style="stroke: #A80036; stroke-width: 0.8377288240769469;" width="73.7201" x="763.0313" y="266.3978"/>
        <ellipse cx="771.4086" cy="276.9915" fill="#ADD1B2" rx="6.1433" ry="6.1433" style="stroke: #A80036; stroke-width: 0.5584858827179646;"/>
        <path d="M773.0666,280.1418 Q772.7438,280.3076 772.386,280.3905 Q772.0282,280.4734 771.6355,280.4734 Q770.2393,280.4734 769.5019,279.5527 Q768.7645,278.6321 768.7645,276.8868 Q768.7645,275.1416 769.5019,274.2166 Q770.2393,273.2916 771.6355,273.2916 Q772.0282,273.2916 772.3903,273.3788 Q772.7525,273.4661 773.0666,273.6319 L773.0666,275.1503 Q772.7176,274.8274 772.386,274.6747 Q772.0544,274.522 771.7053,274.522 Q770.9549,274.522 770.5709,275.1197 Q770.1869,275.7175 770.1869,276.8868 Q770.1869,278.0562 770.5709,278.6539 Q770.9549,279.2517 771.7053,279.2517 Q772.0544,279.2517 772.386,279.099 Q772.7176,278.9462 773.0666,278.6234 L773.0666,280.1418 Z "/>
        <text fill="#000000" font-size="6.7018" font-style="italic" lengthAdjust="spacingAndGlyphs" textLength="58.0825" x="778.1105" y="275.892">&lt;&lt;Structurer&gt;&gt;</text>
        <text fill="#000000" font-size="6.7018" lengthAdjust="spacingAndGlyphs" textLength="25.1319" x="794.5858" y="283.6934">System</text>
        <rect fill="#FEFECE" filter="url(#f1)" height="21.1876" style="stroke: #A80036; stroke-width: 0.8377288240769469;" width="103.3199" x="773.0841" y="353.5216"/>
        <ellipse cx="781.4614" cy="364.1153" fill="#ADD1B2" rx="6.1433" ry="6.1433" style="stroke: #A80036; stroke-width: 0.5584858827179646;"/>
        <path d="M783.1194,367.2656 Q782.7965,367.4314 782.4387,367.5143 Q782.0809,367.5972 781.6883,367.5972 Q780.292,367.5972 779.5547,366.6765 Q778.8173,365.7559 778.8173,364.0106 Q778.8173,362.2654 779.5547,361.3404 Q780.292,360.4154 781.6883,360.4154 Q782.0809,360.4154 782.4431,360.5026 Q782.8052,360.5899 783.1194,360.7557 L783.1194,362.2741 Q782.7703,361.9512 782.4387,361.7985 Q782.1071,361.6458 781.7581,361.6458 Q781.0076,361.6458 780.6236,362.2435 Q780.2397,362.8413 780.2397,364.0106 Q780.2397,365.18 780.6236,365.7777 Q781.0076,366.3755 781.7581,366.3755 Q782.1071,366.3755 782.4387,366.2228 Q782.7703,366.07 783.1194,365.7472 L783.1194,367.2656 Z "/>
        <text fill="#000000" font-size="6.7018" font-style="italic" lengthAdjust="spacingAndGlyphs" textLength="87.6823" x="788.1632" y="363.0158">&lt;&lt;Information Holder&gt;&gt;</text>
        <text fill="#000000" font-size="6.7018" lengthAdjust="spacingAndGlyphs" textLength="22.3394" x="820.8346" y="370.8172">Planet</text>
        <rect fill="#FEFECE" filter="url(#f1)" height="21.1876" style="stroke: #A80036; stroke-width: 0.8377288240769469;" width="73.7201" x="418.4455" y="527.7692"/>
        <ellipse cx="426.8228" cy="538.3629" fill="#ADD1B2" rx="6.1433" ry="6.1433" style="stroke: #A80036; stroke-width: 0.5584858827179646;"/>
        <path d="M428.4808,541.5131 Q428.158,541.6789 427.8002,541.7618 Q427.4424,541.8447 427.0497,541.8447 Q425.6535,541.8447 424.9161,540.9241 Q424.1788,540.0035 424.1788,538.2582 Q424.1788,536.513 424.9161,535.588 Q425.6535,534.663 427.0497,534.663 Q427.4424,534.663 427.8045,534.7502 Q428.1667,534.8375 428.4808,535.0033 L428.4808,536.5217 Q428.1318,536.1988 427.8002,536.0461 Q427.4686,535.8934 427.1195,535.8934 Q426.3691,535.8934 425.9851,536.4911 Q425.6011,537.0889 425.6011,538.2582 Q425.6011,539.4276 425.9851,540.0253 Q426.3691,540.6231 427.1195,540.6231 Q427.4686,540.6231 427.8002,540.4703 Q428.1318,540.3176 428.4808,539.9948 L428.4808,541.5131 Z "/>
        <text fill="#000000" font-size="6.7018" font-style="italic" lengthAdjust="spacingAndGlyphs" textLength="58.0825" x="433.5247" y="537.2634">&lt;&lt;Structurer&gt;&gt;</text>
        <text fill="#000000" font-size="6.7018" lengthAdjust="spacingAndGlyphs" textLength="15.0791" x="455.0264" y="545.0648">Ship</text>
        <rect fill="#FEFECE" filter="url(#f1)" height="21.1876" style="stroke: #A80036; stroke-width: 0.8377288240769469;" width="103.3199" x="403.3664" y="614.893"/>
        <ellipse cx="411.7437" cy="625.4867" fill="#ADD1B2" rx="6.1433" ry="6.1433" style="stroke: #A80036; stroke-width: 0.5584858827179646;"/>
        <path d="M413.4017,628.6369 Q413.0788,628.8027 412.7211,628.8856 Q412.3633,628.9685 411.9706,628.9685 Q410.5744,628.9685 409.837,628.0479 Q409.0996,627.1273 409.0996,625.382 Q409.0996,623.6368 409.837,622.7118 Q410.5744,621.7868 411.9706,621.7868 Q412.3633,621.7868 412.7254,621.874 Q413.0876,621.9613 413.4017,622.1271 L413.4017,623.6455 Q413.0527,623.3226 412.7211,623.1699 Q412.3895,623.0172 412.0404,623.0172 Q411.2899,623.0172 410.906,623.6149 Q410.522,624.2127 410.522,625.382 Q410.522,626.5513 410.906,627.1491 Q411.2899,627.7469 412.0404,627.7469 Q412.3895,627.7469 412.7211,627.5941 Q413.0527,627.4414 413.4017,627.1186 L413.4017,628.6369 Z "/>
        <text fill="#000000" font-size="6.7018" font-style="italic" lengthAdjust="spacingAndGlyphs" textLength="87.6823" x="418.4455" y="624.3872">&lt;&lt;Information Holder&gt;&gt;</text>
        <text fill="#000000" font-size="6.7018" lengthAdjust="spacingAndGlyphs" textLength="34.0676" x="445.2529" y="632.1886">Upgrades</text>
        <rect fill="#FEFECE" filter="url(#f1)" height="21.1876" style="stroke: #A80036; stroke-width: 0.8377288240769469;" width="73.7201" x="649.6587" y="440.6454"/>
        <ellipse cx="658.036" cy="451.2391" fill="#ADD1B2" rx="6.1433" ry="6.1433" style="stroke: #A80036; stroke-width: 0.5584858827179646;"/>
        <path d="M659.694,454.3893 Q659.3711,454.5552 659.0133,454.6381 Q658.6556,454.721 658.2629,454.721 Q656.8667,454.721 656.1293,453.8003 Q655.3919,452.8797 655.3919,451.1344 Q655.3919,449.3892 656.1293,448.4642 Q656.8667,447.5392 658.2629,447.5392 Q658.6556,447.5392 659.0177,447.6264 Q659.3798,447.7137 659.694,447.8795 L659.694,449.3979 Q659.3449,449.075 659.0133,448.9223 Q658.6817,448.7696 658.3327,448.7696 Q657.5822,448.7696 657.1983,449.3673 Q656.8143,449.9651 656.8143,451.1344 Q656.8143,452.3038 657.1983,452.9015 Q657.5822,453.4993 658.3327,453.4993 Q658.6817,453.4993 659.0133,453.3466 Q659.3449,453.1938 659.694,452.871 L659.694,454.3893 Z "/>
        <text fill="#000000" font-size="6.7018" font-style="italic" lengthAdjust="spacingAndGlyphs" textLength="58.0825" x="664.7378" y="450.1396">&lt;&lt;Structurer&gt;&gt;</text>
        <text fill="#000000" font-size="6.7018" lengthAdjust="spacingAndGlyphs" textLength="31.8337" x="677.8622" y="457.941">Company</text>
        <rect fill="#FEFECE" filter="url(#f1)" height="21.1876" style="stroke: #A80036; stroke-width: 0.8377288240769469;" width="103.3199" x="533.9125" y="527.2107"/>
        <ellipse cx="542.2898" cy="537.8045" fill="#ADD1B2" rx="6.1433" ry="6.1433" style="stroke: #A80036; stroke-width: 0.5584858827179646;"/>
        <path d="M543.9478,540.9547 Q543.6249,541.1205 543.2671,541.2034 Q542.9094,541.2863 542.5167,541.2863 Q541.1205,541.2863 540.3831,540.3656 Q539.6457,539.445 539.6457,537.6997 Q539.6457,535.9545 540.3831,535.0295 Q541.1205,534.1045 542.5167,534.1045 Q542.9094,534.1045 543.2715,534.1917 Q543.6336,534.279 543.9478,534.4448 L543.9478,535.9632 Q543.5987,535.6403 543.2671,535.4876 Q542.9355,535.3349 542.5865,535.3349 Q541.836,535.3349 541.4521,535.9327 Q541.0681,536.5304 541.0681,537.6997 Q541.0681,538.8691 541.4521,539.4668 Q541.836,540.0646 542.5865,540.0646 Q542.9355,540.0646 543.2671,539.9119 Q543.5987,539.7592 543.9478,539.4363 L543.9478,540.9547 Z "/>
        <text fill="#000000" font-size="6.7018" font-style="italic" lengthAdjust="spacingAndGlyphs" textLength="87.6823" x="548.9916" y="536.7049">&lt;&lt;Information Holder&gt;&gt;</text>
        <text fill="#000000" font-size="6.7018" lengthAdjust="spacingAndGlyphs" textLength="19.547" x="583.0593" y="544.5063">Stock</text>
        <rect fill="#FEFECE" filter="url(#f1)" height="21.1876" style="stroke: #A80036; stroke-width: 0.8377288240769469;" width="103.3199" x="670.8812" y="527.7692"/>
        <ellipse cx="679.2585" cy="538.3629" fill="#ADD1B2" rx="6.1433" ry="6.1433" style="stroke: #A80036; stroke-width: 0.5584858827179646;"/>
        <path d="M680.9165,541.5131 Q680.5936,541.6789 680.2358,541.7618 Q679.878,541.8447 679.4853,541.8447 Q678.0891,541.8447 677.3517,540.9241 Q676.6144,540.0035 676.6144,538.2582 Q676.6144,536.513 677.3517,535.588 Q678.0891,534.663 679.4853,534.663 Q679.878,534.663 680.2402,534.7502 Q680.6023,534.8375 680.9165,535.0033 L680.9165,536.5217 Q680.5674,536.1988 680.2358,536.0461 Q679.9042,535.8934 679.5552,535.8934 Q678.8047,535.8934 678.4207,536.4911 Q678.0368,537.0889 678.0368,538.2582 Q678.0368,539.4276 678.4207,540.0253 Q678.8047,540.6231 679.5552,540.6231 Q679.9042,540.6231 680.2358,540.4703 Q680.5674,540.3176 680.9165,539.9948 L680.9165,541.5131 Z "/>
        <text fill="#000000" font-size="6.7018" font-style="italic" lengthAdjust="spacingAndGlyphs" textLength="87.6823" x="685.9603" y="537.2634">&lt;&lt;Information Holder&gt;&gt;</text>
        <text fill="#000000" font-size="6.7018" lengthAdjust="spacingAndGlyphs" textLength="18.43" x="720.5864" y="545.0648">Good</text>
        <rect fill="#FEFECE" filter="url(#f1)" height="21.1876" style="stroke: #A80036; stroke-width: 0.8377288240769469;" width="93.2671" x="500.9618" y="189.8852"/>
        <ellipse cx="509.3391" cy="200.479" fill="#ADD1B2" rx="6.1433" ry="6.1433" style="stroke: #A80036; stroke-width: 0.5584858827179646;"/>
        <path d="M510.9971,203.6292 Q510.6743,203.795 510.3165,203.8779 Q509.9587,203.9608 509.566,203.9608 Q508.1698,203.9608 507.4324,203.0402 Q506.695,202.1195 506.695,200.3743 Q506.695,198.629 507.4324,197.704 Q508.1698,196.779 509.566,196.779 Q509.9587,196.779 510.3208,196.8663 Q510.683,196.9535 510.9971,197.1193 L510.9971,198.6377 Q510.6481,198.3148 510.3165,198.1621 Q509.9849,198.0094 509.6358,198.0094 Q508.8854,198.0094 508.5014,198.6072 Q508.1174,199.2049 508.1174,200.3743 Q508.1174,201.5436 508.5014,202.1413 Q508.8854,202.7391 509.6358,202.7391 Q509.9849,202.7391 510.3165,202.5864 Q510.6481,202.4337 510.9971,202.1108 L510.9971,203.6292 Z "/>
        <text fill="#000000" font-size="6.7018" font-style="italic" lengthAdjust="spacingAndGlyphs" textLength="77.6295" x="516.041" y="199.3795">&lt;&lt;Service Provider&gt;&gt;</text>
        <text fill="#000000" font-size="6.7018" lengthAdjust="spacingAndGlyphs" textLength="41.328" x="534.1917" y="207.1808">Transaction</text>
        <rect fill="#FEFECE" filter="url(#f1)" height="21.1876" style="stroke: #A80036; stroke-width: 0.8377288240769469;" width="103.3199" x="249.0847" y="440.0869"/>
        <ellipse cx="257.462" cy="450.6807" fill="#ADD1B2" rx="6.1433" ry="6.1433" style="stroke: #A80036; stroke-width: 0.5584858827179646;"/>
        <path d="M259.12,453.8309 Q258.7971,453.9967 258.4393,454.0796 Q258.0816,454.1625 257.6889,454.1625 Q256.2927,454.1625 255.5553,453.2418 Q254.8179,452.3212 254.8179,450.5759 Q254.8179,448.8307 255.5553,447.9057 Q256.2927,446.9807 257.6889,446.9807 Q258.0816,446.9807 258.4437,447.0679 Q258.8058,447.1552 259.12,447.321 L259.12,448.8394 Q258.7709,448.5165 258.4393,448.3638 Q258.1077,448.2111 257.7587,448.2111 Q257.0082,448.2111 256.6243,448.8089 Q256.2403,449.4066 256.2403,450.5759 Q256.2403,451.7453 256.6243,452.343 Q257.0082,452.9408 257.7587,452.9408 Q258.1077,452.9408 258.4393,452.7881 Q258.7709,452.6354 259.12,452.3125 L259.12,453.8309 Z "/>
        <text fill="#000000" font-size="6.7018" font-style="italic" lengthAdjust="spacingAndGlyphs" textLength="87.6823" x="264.1638" y="449.5811">&lt;&lt;Information Holder&gt;&gt;</text>
        <text fill="#000000" font-size="6.7018" lengthAdjust="spacingAndGlyphs" textLength="20.664" x="297.673" y="457.3825">Police</text>
        <rect fill="#FEFECE" filter="url(#f1)" height="21.1876" style="stroke: #A80036; stroke-width: 0.8377288240769469;" width="103.3199" x="3.3509" y="440.0869"/>
        <ellipse cx="11.7282" cy="450.6807" fill="#ADD1B2" rx="6.1433" ry="6.1433" style="stroke: #A80036; stroke-width: 0.5584858827179646;"/>
        <path d="M13.3862,453.8309 Q13.0633,453.9967 12.7056,454.0796 Q12.3478,454.1625 11.9551,454.1625 Q10.5589,454.1625 9.8215,453.2418 Q9.0841,452.3212 9.0841,450.5759 Q9.0841,448.8307 9.8215,447.9057 Q10.5589,446.9807 11.9551,446.9807 Q12.3478,446.9807 12.7099,447.0679 Q13.0721,447.1552 13.3862,447.321 L13.3862,448.8394 Q13.0372,448.5165 12.7056,448.3638 Q12.374,448.2111 12.0249,448.2111 Q11.2744,448.2111 10.8905,448.8089 Q10.5065,449.4066 10.5065,450.5759 Q10.5065,451.7453 10.8905,452.343 Q11.2744,452.9408 12.0249,452.9408 Q12.374,452.9408 12.7056,452.7881 Q13.0372,452.6354 13.3862,452.3125 L13.3862,453.8309 Z "/>
        <text fill="#000000" font-size="6.7018" font-style="italic" lengthAdjust="spacingAndGlyphs" textLength="87.6823" x="18.43" y="449.5811">&lt;&lt;Information Holder&gt;&gt;</text>
        <text fill="#000000" font-size="6.7018" lengthAdjust="spacingAndGlyphs" textLength="20.664" x="51.9392" y="457.3825">Pirate</text>
        <rect fill="#FEFECE" filter="url(#f1)" height="21.1876" style="stroke: #A80036; stroke-width: 0.8377288240769469;" width="103.3199" x="126.2178" y="440.0869"/>
        <ellipse cx="134.5951" cy="450.6807" fill="#ADD1B2" rx="6.1433" ry="6.1433" style="stroke: #A80036; stroke-width: 0.5584858827179646;"/>
        <path d="M136.2531,453.8309 Q135.9302,453.9967 135.5724,454.0796 Q135.2147,454.1625 134.822,454.1625 Q133.4258,454.1625 132.6884,453.2418 Q131.951,452.3212 131.951,450.5759 Q131.951,448.8307 132.6884,447.9057 Q133.4258,446.9807 134.822,446.9807 Q135.2147,446.9807 135.5768,447.0679 Q135.939,447.1552 136.2531,447.321 L136.2531,448.8394 Q135.904,448.5165 135.5724,448.3638 Q135.2408,448.2111 134.8918,448.2111 Q134.1413,448.2111 133.7574,448.8089 Q133.3734,449.4066 133.3734,450.5759 Q133.3734,451.7453 133.7574,452.343 Q134.1413,452.9408 134.8918,452.9408 Q135.2408,452.9408 135.5724,452.7881 Q135.904,452.6354 136.2531,452.3125 L136.2531,453.8309 Z "/>
        <text fill="#000000" font-size="6.7018" font-style="italic" lengthAdjust="spacingAndGlyphs" textLength="87.6823" x="141.2969" y="449.5811">&lt;&lt;Information Holder&gt;&gt;</text>
        <text fill="#000000" font-size="6.7018" lengthAdjust="spacingAndGlyphs" textLength="22.8979" x="173.6891" y="457.3825">Trader</text>
        <rect fill="#FEFECE" filter="url(#f1)" height="21.1876" style="stroke: #A80036; stroke-width: 0.8377288240769469;" width="79.305" x="276.5901" y="141.2969"/>
        <ellipse cx="284.9674" cy="151.8907" fill="#ADD1B2" rx="6.1433" ry="6.1433" style="stroke: #A80036; stroke-width: 0.5584858827179646;"/>
        <path d="M286.6254,155.0409 Q286.3026,155.2067 285.9448,155.2896 Q285.587,155.3725 285.1943,155.3725 Q283.7981,155.3725 283.0607,154.4519 Q282.3233,153.5313 282.3233,151.786 Q282.3233,150.0407 283.0607,149.1157 Q283.7981,148.1907 285.1943,148.1907 Q285.587,148.1907 285.9491,148.278 Q286.3113,148.3653 286.6254,148.5311 L286.6254,150.0494 Q286.2764,149.7266 285.9448,149.5739 Q285.6132,149.4212 285.2641,149.4212 Q284.5137,149.4212 284.1297,150.0189 Q283.7457,150.6167 283.7457,151.786 Q283.7457,152.9553 284.1297,153.5531 Q284.5137,154.1508 285.2641,154.1508 Q285.6132,154.1508 285.9448,153.9981 Q286.2764,153.8454 286.6254,153.5225 L286.6254,155.0409 Z "/>
        <text fill="#000000" font-size="6.7018" font-style="italic" lengthAdjust="spacingAndGlyphs" textLength="63.6674" x="291.6693" y="150.7912">&lt;&lt;Coordinator&gt;&gt;</text>
        <text fill="#000000" font-size="6.7018" lengthAdjust="spacingAndGlyphs" textLength="33.5092" x="306.7484" y="158.5925">Approach</text>
        <rect fill="#FEFECE" filter="url(#f1)" height="21.1876" style="stroke: #A80036; stroke-width: 0.8377288240769469;" width="93.2671" x="246.4319" y="353.5216"/>
        <ellipse cx="254.8092" cy="364.1153" fill="#ADD1B2" rx="6.1433" ry="6.1433" style="stroke: #A80036; stroke-width: 0.5584858827179646;"/>
        <path d="M256.4672,367.2656 Q256.1443,367.4314 255.7865,367.5143 Q255.4288,367.5972 255.0361,367.5972 Q253.6399,367.5972 252.9025,366.6765 Q252.1651,365.7559 252.1651,364.0106 Q252.1651,362.2654 252.9025,361.3404 Q253.6399,360.4154 255.0361,360.4154 Q255.4288,360.4154 255.7909,360.5026 Q256.153,360.5899 256.4672,360.7557 L256.4672,362.2741 Q256.1181,361.9512 255.7865,361.7985 Q255.4549,361.6458 255.1059,361.6458 Q254.3554,361.6458 253.9715,362.2435 Q253.5875,362.8413 253.5875,364.0106 Q253.5875,365.18 253.9715,365.7777 Q254.3554,366.3755 255.1059,366.3755 Q255.4549,366.3755 255.7865,366.2228 Q256.1181,366.07 256.4672,365.7472 L256.4672,367.2656 Z "/>
        <text fill="#000000" font-size="6.7018" font-style="italic" lengthAdjust="spacingAndGlyphs" textLength="77.6295" x="261.511" y="363.0158">&lt;&lt;Service Provider&gt;&gt;</text>
        <text fill="#000000" font-size="6.7018" lengthAdjust="spacingAndGlyphs" textLength="36.3016" x="282.175" y="370.8172">Encounter</text>
        <rect fill="#FEFECE" filter="url(#f1)" height="21.1876" style="stroke: #A80036; stroke-width: 0.8377288240769469;" width="72.6032" x="465.3584" y="265.8393"/>
        <ellipse cx="473.7357" cy="276.4331" fill="#ADD1B2" rx="6.1433" ry="6.1433" style="stroke: #A80036; stroke-width: 0.5584858827179646;"/>
        <path d="M475.3937,279.5833 Q475.0708,279.7491 474.713,279.832 Q474.3552,279.9149 473.9625,279.9149 Q472.5663,279.9149 471.8289,278.9942 Q471.0916,278.0736 471.0916,276.3283 Q471.0916,274.5831 471.8289,273.6581 Q472.5663,272.7331 473.9625,272.7331 Q474.3552,272.7331 474.7174,272.8204 Q475.0795,272.9076 475.3937,273.0734 L475.3937,274.5918 Q475.0446,274.2689 474.713,274.1162 Q474.3814,273.9635 474.0323,273.9635 Q473.2819,273.9635 472.8979,274.5613 Q472.514,275.159 472.514,276.3283 Q472.514,277.4977 472.8979,278.0954 Q473.2819,278.6932 474.0323,278.6932 Q474.3814,278.6932 474.713,278.5405 Q475.0446,278.3878 475.3937,278.0649 L475.3937,279.5833 Z "/>
        <text fill="#000000" font-size="6.7018" font-style="italic" lengthAdjust="spacingAndGlyphs" textLength="56.9656" x="480.4375" y="275.3335">&lt;&lt;Interfacer&gt;&gt;</text>
        <text fill="#000000" font-size="6.7018" lengthAdjust="spacingAndGlyphs" textLength="17.3131" x="500.2637" y="283.1349">Bank</text>
        <rect fill="#FEFECE" filter="url(#f1)" height="21.1876" style="stroke: #A80036; stroke-width: 0.8377288240769469;" width="72.6032" x="649.6587" y="265.8393"/>
        <ellipse cx="658.036" cy="276.4331" fill="#ADD1B2" rx="6.1433" ry="6.1433" style="stroke: #A80036; stroke-width: 0.5584858827179646;"/>
        <path d="M659.694,279.5833 Q659.3711,279.7491 659.0133,279.832 Q658.6556,279.9149 658.2629,279.9149 Q656.8667,279.9149 656.1293,278.9942 Q655.3919,278.0736 655.3919,276.3283 Q655.3919,274.5831 656.1293,273.6581 Q656.8667,272.7331 658.2629,272.7331 Q658.6556,272.7331 659.0177,272.8204 Q659.3798,272.9076 659.694,273.0734 L659.694,274.5918 Q659.3449,274.2689 659.0133,274.1162 Q658.6817,273.9635 658.3327,273.9635 Q657.5822,273.9635 657.1983,274.5613 Q656.8143,275.159 656.8143,276.3283 Q656.8143,277.4977 657.1983,278.0954 Q657.5822,278.6932 658.3327,278.6932 Q658.6817,278.6932 659.0133,278.5405 Q659.3449,278.3878 659.694,278.0649 L659.694,279.5833 Z "/>
        <text fill="#000000" font-size="6.7018" font-style="italic" lengthAdjust="spacingAndGlyphs" textLength="56.9656" x="664.7378" y="275.3335">&lt;&lt;Interfacer&gt;&gt;</text>
        <text fill="#000000" font-size="6.7018" lengthAdjust="spacingAndGlyphs" textLength="24.0149" x="681.2132" y="283.1349">Market</text>
        <rect fill="#FEFECE" filter="url(#f1)" height="21.1876" style="stroke: #A80036; stroke-width: 0.8377288240769469;" width="72.6032" x="557.5085" y="265.8393"/>
        <ellipse cx="565.8858" cy="276.4331" fill="#ADD1B2" rx="6.1433" ry="6.1433" style="stroke: #A80036; stroke-width: 0.5584858827179646;"/>
        <path d="M567.5438,279.5833 Q567.221,279.7491 566.8632,279.832 Q566.5054,279.9149 566.1127,279.9149 Q564.7165,279.9149 563.9791,278.9942 Q563.2417,278.0736 563.2417,276.3283 Q563.2417,274.5831 563.9791,273.6581 Q564.7165,272.7331 566.1127,272.7331 Q566.5054,272.7331 566.8675,272.8204 Q567.2297,272.9076 567.5438,273.0734 L567.5438,274.5918 Q567.1948,274.2689 566.8632,274.1162 Q566.5316,273.9635 566.1825,273.9635 Q565.4321,273.9635 565.0481,274.5613 Q564.6641,275.159 564.6641,276.3283 Q564.6641,277.4977 565.0481,278.0954 Q565.4321,278.6932 566.1825,278.6932 Q566.5316,278.6932 566.8632,278.5405 Q567.1948,278.3878 567.5438,278.0649 L567.5438,279.5833 Z "/>
        <text fill="#000000" font-size="6.7018" font-style="italic" lengthAdjust="spacingAndGlyphs" textLength="56.9656" x="572.5877" y="275.3335">&lt;&lt;Interfacer&gt;&gt;</text>
        <text fill="#000000" font-size="6.7018" lengthAdjust="spacingAndGlyphs" textLength="30.1582" x="585.9913" y="283.1349">Shipyard</text>
        <path d="M389.9628,25.8076 C389.9628,40.1998 389.9628,67.3478 389.9628,90.4747 C389.9628,90.4747 389.9628,90.4747 389.9628,364.1328 C389.9628,392.5687 408.2236,421.7373 420.1339,437.7373 " fill="none" style="stroke: #A80036; stroke-width: 0.5584858827179646;"/>
        <polygon fill="#A80036" points="421.8423,440.0009,420.5961,434.6434,420.1595,437.7724,417.0306,437.3358,421.8423,440.0009" style="stroke: #A80036; stroke-width: 0.5584858827179646;"/>
        <text fill="#000000" font-size="7.2603" lengthAdjust="spacingAndGlyphs" textLength="26.8073" x="390.5213" y="235.681">creates</text>
        <path d="M410.591,25.7294 C439.1793,39.7083 490.7025,64.9128 520.6971,79.5842 " fill="none" style="stroke: #A80036; stroke-width: 0.5584858827179646;"/>
        <polygon fill="#A80036" points="523.3527,80.8799,519.8213,76.6627,520.8449,79.6516,517.856,80.6752,523.3527,80.8799" style="stroke: #A80036; stroke-width: 0.5584858827179646;"/>
        <text fill="#000000" font-size="7.2603" lengthAdjust="spacingAndGlyphs" textLength="36.3016" x="463.1244" y="50.2637">alternates</text>
        <text fill="#000000" font-size="7.2603" lengthAdjust="spacingAndGlyphs" textLength="3.9094" x="512.9946" y="75.2571">*</text>
        <path d="M358.8104,25.8244 C350.78,29.8343 342.8835,35.2516 337.4651,42.4449 C315.726,71.3075 314.4504,116.3421 315.3217,138.3548 " fill="none" style="stroke: #A80036; stroke-width: 0.5584858827179646;"/>
        <polygon fill="#A80036" points="315.4501,141.1769,317.4519,136.0536,315.3225,138.3873,312.9887,136.2579,315.4501,141.1769" style="stroke: #A80036; stroke-width: 0.5584858827179646;"/>
        <text fill="#000000" font-size="7.2603" lengthAdjust="spacingAndGlyphs" textLength="36.3016" x="338.0236" y="50.2637">alternates</text>
        <text fill="#000000" font-size="7.2603" lengthAdjust="spacingAndGlyphs" textLength="3.9094" x="310.1352" y="135.549">*</text>
        <path d="M515.8215,374.3369 C497.8008,390.2856 463.0367,421.0537 443.8036,438.0763 " fill="none" style="stroke: #A80036; stroke-width: 0.5584858827179646;"/>
        <polygon fill="#A80036" points="441.5373,440.0818,446.782,438.4242,443.6286,438.2315,443.8214,435.0781,441.5373,440.0818" style="stroke: #A80036; stroke-width: 0.5584858827179646;"/>
        <text fill="#000000" font-size="7.2603" lengthAdjust="spacingAndGlyphs" textLength="28.4828" x="482.6714" y="409.9286">controls</text>
        <path d="M433.1058,461.3563 C437.6591,477.0397 446.4302,507.2509 451.4772,524.6355 " fill="none" style="stroke: #A80036; stroke-width: 0.5584858827179646;"/>
        <polygon fill="#A80036" points="452.3144,527.5184,453.058,522.0684,451.5356,524.8367,448.7673,523.3144,452.3144,527.5184" style="stroke: #A80036; stroke-width: 0.5584858827179646;"/>
        <text fill="#000000" font-size="7.2603" lengthAdjust="spacingAndGlyphs" textLength="34.0676" x="444.1359" y="497.0524">access to</text>
        <path d="M561.1543,101.7154 C596.5132,121.5545 677.7059,167.1051 715.7946,188.475 " fill="none" style="stroke: #A80036; stroke-width: 0.5584858827179646;"/>
        <polygon fill="#A80036" points="718.2408,189.8472,714.9477,185.4415,715.8047,188.4823,712.7638,189.3392,718.2408,189.8472" style="stroke: #A80036; stroke-width: 0.5584858827179646;"/>
        <text fill="#000000" font-size="7.2603" lengthAdjust="spacingAndGlyphs" textLength="29.0413" x="685.4018" y="154.1421">updates</text>
        <path d="M744.8079,211.2233 C756.3463,224.8822 776.8315,249.1433 789.3081,263.9164 " fill="none" style="stroke: #A80036; stroke-width: 0.5584858827179646;"/>
        <polygon fill="#A80036" points="791.2349,266.2029,789.7035,260.9199,789.4352,264.0677,786.2873,263.7994,791.2349,266.2029" style="stroke: #A80036; stroke-width: 0.5584858827179646;"/>
        <text fill="#000000" font-size="7.2603" lengthAdjust="spacingAndGlyphs" textLength="30.1582" x="766.3823" y="235.681">contains</text>
        <text fill="#000000" font-size="7.2603" lengthAdjust="spacingAndGlyphs" textLength="13.4037" x="773.393" y="260.7496">120</text>
        <path d="M802.6783,287.1003 C807.1964,302.5631 816.1266,333.1357 821.2256,350.5772 " fill="none" style="stroke: #A80036; stroke-width: 0.5584858827179646;"/>
        <polygon fill="#A80036" points="822.0689,353.4674,822.8046,348.0164,821.2863,350.7869,818.5158,349.2686,822.0689,353.4674" style="stroke: #A80036; stroke-width: 0.5584858827179646;"/>
        <text fill="#000000" font-size="7.2603" lengthAdjust="spacingAndGlyphs" textLength="30.1582" x="813.2951" y="322.8048">contains</text>
        <text fill="#000000" font-size="7.2603" lengthAdjust="spacingAndGlyphs" textLength="13.4037" x="805.5608" y="347.8564">2..4</text>
        <path d="M809.6705,374.2241 C784.103,390.1024 732.8731,421.9126 705.2336,439.0777 " fill="none" style="stroke: #A80036; stroke-width: 0.5584858827179646;"/>
        <polygon fill="#A80036" points="702.793,440.5912,708.2428,439.8464,705.1677,439.122,705.8921,436.0469,702.793,440.5912" style="stroke: #A80036; stroke-width: 0.5584858827179646;"/>
        <text fill="#000000" font-size="7.2603" lengthAdjust="spacingAndGlyphs" textLength="30.1582" x="764.1483" y="409.9286">contains</text>
        <text fill="#000000" font-size="7.2603" lengthAdjust="spacingAndGlyphs" textLength="3.9094" x="701.8514" y="434.9802">*</text>
        <path d="M675.1201,461.4512 C656.5392,477.1586 619.7685,508.2411 599.5569,525.3241 " fill="none" style="stroke: #A80036; stroke-width: 0.5584858827179646;"/>
        <polygon fill="#A80036" points="597.4179,527.1342,602.7019,525.6064,599.5543,525.3359,599.8247,522.1882,597.4179,527.1342" style="stroke: #A80036; stroke-width: 0.5584858827179646;"/>
        <text fill="#000000" font-size="7.2603" lengthAdjust="spacingAndGlyphs" textLength="17.8715" x="642.9569" y="497.0524">owns</text>
        <path d="M690.5399,461.3479 C697.0965,476.8749 710.0813,507.6357 717.4254,525.0404 " fill="none" style="stroke: #A80036; stroke-width: 0.5584858827179646;"/>
        <polygon fill="#A80036" points="718.5535,527.715,718.6604,522.2156,717.4692,525.1417,714.5431,523.9505,718.5535,527.715" style="stroke: #A80036; stroke-width: 0.5584858827179646;"/>
        <text fill="#000000" font-size="7.2603" lengthAdjust="spacingAndGlyphs" textLength="17.8715" x="706.6243" y="497.0524">owns</text>
        <text fill="#000000" font-size="7.2603" lengthAdjust="spacingAndGlyphs" textLength="3.9094" x="718.0326" y="522.104">*</text>
        <path d="M660.8899,461.3479 C617.7747,477.3859 530.9654,509.6781 485.1639,526.7153 " fill="none" style="stroke: #A80036; stroke-width: 0.5584858827179646;"/>
        <polygon fill="#A80036" points="482.4765,527.715,487.9664,528.0556,485.0936,526.7411,486.4081,523.8682,482.4765,527.715" style="stroke: #A80036; stroke-width: 0.5584858827179646;"/>
        <text fill="#000000" font-size="7.2603" lengthAdjust="spacingAndGlyphs" textLength="17.8715" x="585.4328" y="497.0524">owns</text>
        <text fill="#000000" font-size="7.2603" lengthAdjust="spacingAndGlyphs" textLength="3.9094" x="484.3272" y="522.104">*</text>
        <path d="M516.528,211.1914 C495.9254,219.5743 470.0228,233.5672 455.3056,254.6696 C415.0271,312.422 423.2653,403.6362 428.0465,437.1956 " fill="none" style="stroke: #A80036; stroke-width: 0.5584858827179646;"/>
        <polygon fill="#A80036" points="428.4687,440.074,429.9495,434.7766,428.0634,437.3112,425.5289,435.4251,428.4687,440.074" style="stroke: #A80036; stroke-width: 0.5584858827179646;"/>
        <text fill="#000000" font-size="7.2603" lengthAdjust="spacingAndGlyphs" textLength="53.6146" x="430.7322" y="322.8048">exchanges info</text>
        <path d="M592.7602,211.1373 C606.3705,215.2148 620.986,220.693 633.4626,227.8622 C649.9324,237.3252 665.5532,252.7461 675.4049,263.5551 " fill="none" style="stroke: #A80036; stroke-width: 0.5584858827179646;"/>
        <polygon fill="#A80036" points="677.2982,265.6522,675.5906,260.4235,675.4279,263.5786,672.2728,263.4159,677.2982,265.6522" style="stroke: #A80036; stroke-width: 0.5584858827179646;"/>
        <text fill="#000000" font-size="7.2603" lengthAdjust="spacingAndGlyphs" textLength="53.6146" x="648.5417" y="235.681">exchanges info</text>
        <path d="M555.9157,211.202 C559.829,216.0972 564.417,222.1378 568.1198,227.8622 C575.5365,239.3313 582.7577,253.146 587.65,263.0094 " fill="none" style="stroke: #A80036; stroke-width: 0.5584858827179646;"/>
        <polygon fill="#A80036" points="588.9625,265.6812,588.7478,260.185,587.7296,263.1757,584.7389,262.1575,588.9625,265.6812" style="stroke: #A80036; stroke-width: 0.5584858827179646;"/>
        <text fill="#000000" font-size="7.2603" lengthAdjust="spacingAndGlyphs" textLength="53.6146" x="574.2631" y="235.681">exchanges info</text>
        <path d="M527.9719,211.2037 C521.4979,215.5052 514.8609,221.104 510.5957,227.8622 C503.9911,238.3277 502.0123,252.4652 501.5321,262.69 " fill="none" style="stroke: #A80036; stroke-width: 0.5584858827179646;"/>
        <polygon fill="#A80036" points="501.4276,265.7293,503.8326,260.7825,501.5234,262.9385,499.3674,260.6292,501.4276,265.7293" style="stroke: #A80036; stroke-width: 0.5584858827179646;"/>
        <text fill="#000000" font-size="7.2603" lengthAdjust="spacingAndGlyphs" textLength="53.6146" x="511.1542" y="235.681">exchagnes info</text>
        <path d="M455.3056,548.4717 C455.3056,563.9345 455.3056,594.5068 455.3056,611.9488 " fill="none" style="stroke: #A80036; stroke-width: 0.5584858827179646;"/>
        <polygon fill="#A80036" points="455.3056,614.8386,457.5396,609.8122,455.3056,612.0462,453.0717,609.8122,455.3056,614.8386" style="stroke: #A80036; stroke-width: 0.5584858827179646;"/>
        <text fill="#000000" font-size="7.2603" lengthAdjust="spacingAndGlyphs" textLength="25.1319" x="455.8641" y="584.1762">applies</text>
        <text fill="#000000" font-size="7.2603" lengthAdjust="spacingAndGlyphs" textLength="3.9094" x="450.2653" y="609.2276">*</text>
        <path d="M315.1994,162.086 C311.4989,196.2045 298.9966,311.4653 294.7616,350.5136 " fill="none" style="stroke: #A80036; stroke-width: 0.5584858827179646;"/>
        <polygon fill="#A80036" points="294.4472,353.4076,297.2095,348.6511,294.7479,350.6314,292.7676,348.1699,294.4472,353.4076" style="stroke: #A80036; stroke-width: 0.5584858827179646;"/>
        <text fill="#000000" font-size="7.2603" lengthAdjust="spacingAndGlyphs" textLength="27.9243" x="308.9823" y="235.681">initiates</text>
        <text fill="#000000" font-size="7.2603" lengthAdjust="spacingAndGlyphs" textLength="17.8715" x="273.9383" y="347.7814">0..20</text>
        <path d="M301.8605,374.2459 C311.4804,384.6102 327.9865,401.1464 344.7254,412.1626 C361.4593,423.1754 381.9144,432.3948 398.6159,438.9917 " fill="none" style="stroke: #A80036; stroke-width: 0.5584858827179646;"/>
        <polygon fill="#A80036" points="401.2626,440.0277,397.3967,436.115,398.6624,439.0096,395.7677,440.2753,401.2626,440.0277" style="stroke: #A80036; stroke-width: 0.5584858827179646;"/>
        <text fill="#000000" font-size="7.2603" lengthAdjust="spacingAndGlyphs" textLength="29.0413" x="345.2839" y="409.9286">includes</text>
        <path d="M292.154,374.3631 C291.17,383.9797 290.1574,399.1376 291.6693,412.1626 C292.6483,420.5968 294.8113,429.8778 296.7638,437.1531 " fill="none" style="stroke: #A80036; stroke-width: 0.5584858827179646;"/>
        <polygon fill="#A80036" points="297.5267,439.9378,298.3525,434.4997,296.7885,437.2446,294.0436,435.6806,297.5267,439.9378" style="stroke: #A80036; stroke-width: 0.5584858827179646;"/>
        <text fill="#000000" font-size="7.2603" lengthAdjust="spacingAndGlyphs" textLength="29.0413" x="292.2277" y="409.9286">includes</text>
        <path d="M266.6832,374.2447 C222.1741,390.1929 132.9772,422.1533 85.7873,439.0621 " fill="none" style="stroke: #A80036; stroke-width: 0.5584858827179646;"/>
        <polygon fill="#A80036" points="83.0184,440.0539,88.5037,440.461,85.647,439.1117,86.9963,436.2551,83.0184,440.0539" style="stroke: #A80036; stroke-width: 0.5584858827179646;"/>
        <text fill="#000000" font-size="7.2603" lengthAdjust="spacingAndGlyphs" textLength="29.0413" x="189.4663" y="409.9286">includes</text>
        <path d="M280.308,374.3274 C259.0135,390.0666 216.8327,421.2436 193.7516,438.3036 " fill="none" style="stroke: #A80036; stroke-width: 0.5584858827179646;"/>
        <polygon fill="#A80036" points="191.4428,440.0104,196.8124,438.8179,193.688,438.35,194.1559,435.2256,191.4428,440.0104" style="stroke: #A80036; stroke-width: 0.5584858827179646;"/>
        <text fill="#000000" font-size="7.2603" lengthAdjust="spacingAndGlyphs" textLength="29.0413" x="243.081" y="409.9286">includes</text>
        <path d="M501.3975,287.1807 C501.4209,297.0687 502.2028,312.4025 506.1278,325.0388 C508.9214,334.0326 514.0282,343.2745 518.5324,350.389 " fill="none" style="stroke: #A80036; stroke-width: 0.5584858827179646;"/>
        <polygon fill="#A80036" points="520.1592,352.91,519.312,347.4752,518.6456,350.5634,515.5574,349.897,520.1592,352.91" style="stroke: #A80036; stroke-width: 0.5584858827179646;"/>
        <text fill="#000000" font-size="7.2603" lengthAdjust="spacingAndGlyphs" textLength="37.977" x="506.6863" y="322.8048">displays to</text>
        <path d="M670.5517,287.064 C654.875,297.1357 629.7487,312.8498 607.2138,325.0388 C589.4037,334.6704 568.7509,344.4562 552.9105,351.6819 " fill="none" style="stroke: #A80036; stroke-width: 0.5584858827179646;"/>
        <polygon fill="#A80036" points="550.2108,352.9095,555.711,352.8621,552.7527,351.7534,553.8614,348.7951,550.2108,352.9095" style="stroke: #A80036; stroke-width: 0.5584858827179646;"/>
        <text fill="#000000" font-size="7.2603" lengthAdjust="spacingAndGlyphs" textLength="37.977" x="625.6438" y="322.8048">displays to</text>
        <path d="M585.9243,287.2131 C573.6823,303.0545 550.1455,333.516 536.9389,350.6068 " fill="none" style="stroke: #A80036; stroke-width: 0.5584858827179646;"/>
        <polygon fill="#A80036" points="535.2249,352.8251,540.0657,350.2133,536.9321,350.6153,536.5301,347.4818,535.2249,352.8251" style="stroke: #A80036; stroke-width: 0.5584858827179646;"/>
        <text fill="#000000" font-size="7.2603" lengthAdjust="spacingAndGlyphs" textLength="37.977" x="563.6519" y="322.8048">displays to</text>
        <path d="M685.9938,287.098 C686.0887,316.8966 686.368,404.5052 686.4797,437.725 " fill="none" style="stroke: #A80036; stroke-width: 0.5584858827179646;"/>
        <polygon fill="#A80036" points="686.4853,440.5811,688.7034,435.5478,686.4765,437.7887,684.2355,435.5618,686.4853,440.5811" style="stroke: #A80036; stroke-width: 0.5584858827179646;"/>
        <text fill="#000000" font-size="7.2603" lengthAdjust="spacingAndGlyphs" textLength="30.7167" x="687.0773" y="366.3667">gets info</text>
        <text fill="#000000" font-size="7.2603" lengthAdjust="spacingAndGlyphs" textLength="3.9094" x="681.3648" y="434.9676">*</text>
        <path d="M598.8421,287.083 C608.4815,306.3072 630.3128,349.5038 649.6587,385.3553 C659.6333,403.8389 671.663,424.9625 679.2082,438.0668 " fill="none" style="stroke: #A80036; stroke-width: 0.5584858827179646;"/>
        <polygon fill="#A80036" points="680.6547,440.5778,680.0793,435.1075,679.2599,438.1587,676.2087,437.3392,680.6547,440.5778" style="stroke: #A80036; stroke-width: 0.5584858827179646;"/>
        <text fill="#000000" font-size="7.2603" lengthAdjust="spacingAndGlyphs" textLength="30.7167" x="650.2172" y="366.3667">gets info</text>
        <text fill="#000000" font-size="7.2603" lengthAdjust="spacingAndGlyphs" textLength="3.9094" x="674.0401" y="434.9634">*</text>
    </g>
</svg>
