<?xml version="1.0" encoding="UTF-8"?><svg xmlns="http://www.w3.org/2000/svg" xmlns:xlink="http://www.w3.org/1999/xlink" height="713.1865pt" style="width:881px;height:713px;" version="1.1" viewBox="0 0 881 713" width="881.2907pt">
    <defs>
        <filter height="300%" id="f1" width="300%" x="-1" y="-1">
            <feGaussianBlur result="blurOut" stdDeviation="1.1169717654359292"/>
            <feColorMatrix in="blurOut" result="blurOut2" type="matrix" values="0 0 0 0 0 0 0 0 0 0 0 0 0 0 0 0 0 0 .4 0"/>
            <feOffset dx="2.2339435308718585" dy="2.2339435308718585" in="blurOut2" result="blurOut3"/>
            <feBlend in="SourceGraphic" in2="blurOut3" mode="normal"/>
        </filter>
    </defs>
    <g>
        <rect fill="#FEFECE" filter="url(#f1)" height="21.1876" style="stroke: #A80036; stroke-width: 0.8377288240769469;" width="80.9805" x="349.6122" y="4.4679"/>
        <ellipse cx="357.9895" cy="15.0617" fill="#ADD1B2" rx="6.1433" ry="6.1433" style="stroke: #A80036; stroke-width: 0.5584858827179646;"/>
        <path d="M359.6475,18.2119 Q359.3246,18.3777 358.9668,18.4606 Q358.609,18.5435 358.2163,18.5435 Q356.8201,18.5435 356.0827,17.6228 Q355.3454,16.7022 355.3454,14.957 Q355.3454,13.2117 356.0827,12.2867 Q356.8201,11.3617 358.2163,11.3617 Q358.609,11.3617 358.9712,11.449 Q359.3333,11.5362 359.6475,11.702 L359.6475,13.2204 Q359.2984,12.8975 358.9668,12.7448 Q358.6352,12.5921 358.2861,12.5921 Q357.5357,12.5921 357.1517,13.1899 Q356.7678,13.7876 356.7678,14.957 Q356.7678,16.1263 357.1517,16.724 Q357.5357,17.3218 358.2861,17.3218 Q358.6352,17.3218 358.9668,17.1691 Q359.2984,17.0164 359.6475,16.6935 L359.6475,18.2119 Z "/>
        <text fill="#000000" font-size="6.7018" font-style="italic" lengthAdjust="spacingAndGlyphs" textLength="65.3428" x="364.6913" y="13.9621">&lt;&lt;Cooridinator&gt;&gt;</text>
        <text fill="#000000" font-size="6.7018" lengthAdjust="spacingAndGlyphs" textLength="20.1055" x="387.31" y="21.7635">Game</text>
        <rect fill="#FEFECE" filter="url(#f1)" height="21.1876" style="stroke: #A80036; stroke-width: 0.8377288240769469;" width="93.2671" x="497.1921" y="80.9805"/>
        <ellipse cx="505.5693" cy="91.5742" fill="#ADD1B2" rx="6.1433" ry="6.1433" style="stroke: #A80036; stroke-width: 0.5584858827179646;"/>
        <path d="M507.2274,94.7244 Q506.9045,94.8902 506.5467,94.9731 Q506.1889,95.056 505.7962,95.056 Q504.4,95.056 503.6626,94.1354 Q502.9253,93.2148 502.9253,91.4695 Q502.9253,89.7242 503.6626,88.7993 Q504.4,87.8743 505.7962,87.8743 Q506.1889,87.8743 506.5511,87.9615 Q506.9132,88.0488 507.2274,88.2146 L507.2274,89.733 Q506.8783,89.4101 506.5467,89.2574 Q506.2151,89.1047 505.866,89.1047 Q505.1156,89.1047 504.7316,89.7024 Q504.3477,90.3002 504.3477,91.4695 Q504.3477,92.6388 504.7316,93.2366 Q505.1156,93.8344 505.866,93.8344 Q506.2151,93.8344 506.5467,93.6816 Q506.8783,93.5289 507.2274,93.2061 L507.2274,94.7244 Z "/>
        <text fill="#000000" font-size="6.7018" font-style="italic" lengthAdjust="spacingAndGlyphs" textLength="77.6295" x="512.2712" y="90.4747">&lt;&lt;Service Provider&gt;&gt;</text>
        <text fill="#000000" font-size="6.7018" lengthAdjust="spacingAndGlyphs" textLength="15.6376" x="543.2671" y="98.2761">Turn</text>
        <rect fill="#FEFECE" filter="url(#f1)" height="21.1876" style="stroke: #A80036; stroke-width: 0.8377288240769469;" width="72.0447" x="491.4676" y="381.4459"/>
        <ellipse cx="499.8449" cy="392.0396" fill="#ADD1B2" rx="6.1433" ry="6.1433" style="stroke: #A80036; stroke-width: 0.5584858827179646;"/>
        <path d="M501.5029,395.1898 Q501.18,395.3556 500.8222,395.4385 Q500.4644,395.5214 500.0717,395.5214 Q498.6755,395.5214 497.9382,394.6008 Q497.2008,393.6802 497.2008,391.9349 Q497.2008,390.1897 497.9382,389.2647 Q498.6755,388.3397 500.0717,388.3397 Q500.4644,388.3397 500.8266,388.4269 Q501.1887,388.5142 501.5029,388.68 L501.5029,390.1984 Q501.1538,389.8755 500.8222,389.7228 Q500.4906,389.5701 500.1416,389.5701 Q499.3911,389.5701 499.0071,390.1678 Q498.6232,390.7656 498.6232,391.9349 Q498.6232,393.1043 499.0071,393.702 Q499.3911,394.2998 500.1416,394.2998 Q500.4906,394.2998 500.8222,394.147 Q501.1538,393.9943 501.5029,393.6715 L501.5029,395.1898 Z "/>
        <text fill="#000000" font-size="6.7018" font-style="italic" lengthAdjust="spacingAndGlyphs" textLength="56.4071" x="506.5467" y="390.9401">&lt;&lt;Controller&gt;&gt;</text>
        <text fill="#000000" font-size="6.7018" lengthAdjust="spacingAndGlyphs" textLength="21.2225" x="524.139" y="398.7415">Player</text>
        <rect fill="#FEFECE" filter="url(#f1)" height="44.4258" style="stroke: #A80036; stroke-width: 0.8377288240769469;" width="103.3199" x="378.6534" y="469.1281"/>
        <ellipse cx="387.0307" cy="479.7219" fill="#ADD1B2" rx="6.1433" ry="6.1433" style="stroke: #A80036; stroke-width: 0.5584858827179646;"/>
        <path d="M388.6887,482.8721 Q388.3658,483.0379 388.0081,483.1208 Q387.6503,483.2037 387.2576,483.2037 Q385.8614,483.2037 385.124,482.2831 Q384.3866,481.3625 384.3866,479.6172 Q384.3866,477.8719 385.124,476.9469 Q385.8614,476.022 387.2576,476.022 Q387.6503,476.022 388.0124,476.1092 Q388.3746,476.1965 388.6887,476.3623 L388.6887,477.8807 Q388.3397,477.5578 388.0081,477.4051 Q387.6765,477.2524 387.3274,477.2524 Q386.5769,477.2524 386.193,477.8501 Q385.809,478.4479 385.809,479.6172 Q385.809,480.7865 386.193,481.3843 Q386.5769,481.982 387.3274,481.982 Q387.6765,481.982 388.0081,481.8293 Q388.3397,481.6766 388.6887,481.3537 L388.6887,482.8721 Z "/>
        <text fill="#000000" font-size="6.7018" font-style="italic" lengthAdjust="spacingAndGlyphs" textLength="87.6823" x="393.7325" y="478.6224">&lt;&lt;Information Holder&gt;&gt;</text>
        <text fill="#000000" font-size="6.7018" lengthAdjust="spacingAndGlyphs" textLength="34.6261" x="420.2606" y="486.4238">Character</text>
        <line style="stroke: #A80036; stroke-width: 0.8377288240769469;" x1="379.2119" x2="481.4148" y1="490.3157" y2="490.3157"/>
        <text fill="#000000" font-size="6.1433" lengthAdjust="spacingAndGlyphs" textLength="17.8715" x="382.0043" y="498.693">name</text>
        <text fill="#000000" font-size="6.1433" lengthAdjust="spacingAndGlyphs" textLength="16.1961" x="382.0043" y="505.8442">skills</text>
        <line style="stroke: #A80036; stroke-width: 0.8377288240769469;" x1="379.2119" x2="481.4148" y1="509.0861" y2="509.0861"/>
        <rect fill="#FEFECE" filter="url(#f1)" height="21.1876" style="stroke: #A80036; stroke-width: 0.8377288240769469;" width="73.7201" x="699.3639" y="198.2625"/>
        <ellipse cx="707.7412" cy="208.8563" fill="#ADD1B2" rx="6.1433" ry="6.1433" style="stroke: #A80036; stroke-width: 0.5584858827179646;"/>
        <path d="M709.3992,212.0065 Q709.0764,212.1723 708.7186,212.2552 Q708.3608,212.3381 707.9681,212.3381 Q706.5719,212.3381 705.8345,211.4174 Q705.0972,210.4968 705.0972,208.7516 Q705.0972,207.0063 705.8345,206.0813 Q706.5719,205.1563 707.9681,205.1563 Q708.3608,205.1563 708.7229,205.2436 Q709.0851,205.3308 709.3992,205.4966 L709.3992,207.015 Q709.0502,206.6921 708.7186,206.5394 Q708.387,206.3867 708.0379,206.3867 Q707.2875,206.3867 706.9035,206.9845 Q706.5195,207.5822 706.5195,208.7516 Q706.5195,209.9209 706.9035,210.5186 Q707.2875,211.1164 708.0379,211.1164 Q708.387,211.1164 708.7186,210.9637 Q709.0502,210.811 709.3992,210.4881 L709.3992,212.0065 Z "/>
        <text fill="#000000" font-size="6.7018" font-style="italic" lengthAdjust="spacingAndGlyphs" textLength="58.0825" x="714.4431" y="207.7567">&lt;&lt;Structurer&gt;&gt;</text>
        <text fill="#000000" font-size="6.7018" lengthAdjust="spacingAndGlyphs" textLength="30.1582" x="728.4052" y="215.5581">Universe</text>
        <rect fill="#FEFECE" filter="url(#f1)" height="21.1876" style="stroke: #A80036; stroke-width: 0.8377288240769469;" width="73.7201" x="763.0313" y="283.1523"/>
        <ellipse cx="771.4086" cy="293.7461" fill="#ADD1B2" rx="6.1433" ry="6.1433" style="stroke: #A80036; stroke-width: 0.5584858827179646;"/>
        <path d="M773.0666,296.8963 Q772.7438,297.0621 772.386,297.145 Q772.0282,297.2279 771.6355,297.2279 Q770.2393,297.2279 769.5019,296.3073 Q768.7645,295.3867 768.7645,293.6414 Q768.7645,291.8961 769.5019,290.9711 Q770.2393,290.0462 771.6355,290.0462 Q772.0282,290.0462 772.3903,290.1334 Q772.7525,290.2207 773.0666,290.3865 L773.0666,291.9049 Q772.7176,291.582 772.386,291.4293 Q772.0544,291.2766 771.7053,291.2766 Q770.9549,291.2766 770.5709,291.8743 Q770.1869,292.4721 770.1869,293.6414 Q770.1869,294.8107 770.5709,295.4085 Q770.9549,296.0062 771.7053,296.0062 Q772.0544,296.0062 772.386,295.8535 Q772.7176,295.7008 773.0666,295.3779 L773.0666,296.8963 Z "/>
        <text fill="#000000" font-size="6.7018" font-style="italic" lengthAdjust="spacingAndGlyphs" textLength="58.0825" x="778.1105" y="292.6466">&lt;&lt;Structurer&gt;&gt;</text>
        <text fill="#000000" font-size="6.7018" lengthAdjust="spacingAndGlyphs" textLength="25.1319" x="794.5858" y="300.448">System</text>
        <rect fill="#FEFECE" filter="url(#f1)" height="44.4258" style="stroke: #A80036; stroke-width: 0.8377288240769469;" width="103.3199" x="773.0841" y="370.2761"/>
        <ellipse cx="781.4614" cy="380.8699" fill="#ADD1B2" rx="6.1433" ry="6.1433" style="stroke: #A80036; stroke-width: 0.5584858827179646;"/>
        <path d="M783.1194,384.0201 Q782.7965,384.1859 782.4387,384.2688 Q782.0809,384.3517 781.6883,384.3517 Q780.292,384.3517 779.5547,383.4311 Q778.8173,382.5105 778.8173,380.7652 Q778.8173,379.0199 779.5547,378.0949 Q780.292,377.17 781.6883,377.17 Q782.0809,377.17 782.4431,377.2572 Q782.8052,377.3445 783.1194,377.5103 L783.1194,379.0287 Q782.7703,378.7058 782.4387,378.5531 Q782.1071,378.4004 781.7581,378.4004 Q781.0076,378.4004 780.6236,378.9981 Q780.2397,379.5959 780.2397,380.7652 Q780.2397,381.9345 780.6236,382.5323 Q781.0076,383.13 781.7581,383.13 Q782.1071,383.13 782.4387,382.9773 Q782.7703,382.8246 783.1194,382.5017 L783.1194,384.0201 Z "/>
        <text fill="#000000" font-size="6.7018" font-style="italic" lengthAdjust="spacingAndGlyphs" textLength="87.6823" x="788.1632" y="379.7704">&lt;&lt;Information Holder&gt;&gt;</text>
        <text fill="#000000" font-size="6.7018" lengthAdjust="spacingAndGlyphs" textLength="22.3394" x="820.8346" y="387.5717">Planet</text>
        <line style="stroke: #A80036; stroke-width: 0.8377288240769469;" x1="773.6426" x2="875.8455" y1="391.4637" y2="391.4637"/>
        <text fill="#000000" font-size="6.1433" lengthAdjust="spacingAndGlyphs" textLength="30.1582" x="776.435" y="399.841">tech level</text>
        <text fill="#000000" font-size="6.1433" lengthAdjust="spacingAndGlyphs" textLength="32.3922" x="776.435" y="406.9922">resources</text>
        <line style="stroke: #A80036; stroke-width: 0.8377288240769469;" x1="773.6426" x2="875.8455" y1="410.2341" y2="410.2341"/>
        <rect fill="#FEFECE" filter="url(#f1)" height="51.577" style="stroke: #A80036; stroke-width: 0.8377288240769469;" width="73.7201" x="418.4455" y="569.6556"/>
        <ellipse cx="426.8228" cy="580.2494" fill="#ADD1B2" rx="6.1433" ry="6.1433" style="stroke: #A80036; stroke-width: 0.5584858827179646;"/>
        <path d="M428.4808,583.3996 Q428.158,583.5654 427.8002,583.6483 Q427.4424,583.7312 427.0497,583.7312 Q425.6535,583.7312 424.9161,582.8106 Q424.1788,581.8899 424.1788,580.1447 Q424.1788,578.3994 424.9161,577.4744 Q425.6535,576.5494 427.0497,576.5494 Q427.4424,576.5494 427.8045,576.6367 Q428.1667,576.7239 428.4808,576.8897 L428.4808,578.4081 Q428.1318,578.0852 427.8002,577.9325 Q427.4686,577.7798 427.1195,577.7798 Q426.3691,577.7798 425.9851,578.3776 Q425.6011,578.9753 425.6011,580.1447 Q425.6011,581.314 425.9851,581.9117 Q426.3691,582.5095 427.1195,582.5095 Q427.4686,582.5095 427.8002,582.3568 Q428.1318,582.2041 428.4808,581.8812 L428.4808,583.3996 Z "/>
        <text fill="#000000" font-size="6.7018" font-style="italic" lengthAdjust="spacingAndGlyphs" textLength="58.0825" x="433.5247" y="579.1499">&lt;&lt;Structurer&gt;&gt;</text>
        <text fill="#000000" font-size="6.7018" lengthAdjust="spacingAndGlyphs" textLength="15.0791" x="455.0264" y="586.9512">Ship</text>
        <line style="stroke: #A80036; stroke-width: 0.8377288240769469;" x1="419.004" x2="491.6072" y1="590.8432" y2="590.8432"/>
        <text fill="#000000" font-size="6.1433" lengthAdjust="spacingAndGlyphs" textLength="19.547" x="421.7965" y="599.2204">model</text>
        <text fill="#000000" font-size="6.1433" lengthAdjust="spacingAndGlyphs" textLength="11.7282" x="421.7965" y="606.3717">fuel</text>
        <text fill="#000000" font-size="6.1433" lengthAdjust="spacingAndGlyphs" textLength="17.8715" x="421.7965" y="613.5229">cargo</text>
        <line style="stroke: #A80036; stroke-width: 0.8377288240769469;" x1="419.004" x2="491.6072" y1="616.7648" y2="616.7648"/>
        <rect fill="#FEFECE" filter="url(#f1)" height="21.1876" style="stroke: #A80036; stroke-width: 0.8377288240769469;" width="103.3199" x="403.3664" y="687.4961"/>
        <ellipse cx="411.7437" cy="698.0899" fill="#ADD1B2" rx="6.1433" ry="6.1433" style="stroke: #A80036; stroke-width: 0.5584858827179646;"/>
        <path d="M413.4017,701.2401 Q413.0788,701.4059 412.7211,701.4888 Q412.3633,701.5717 411.9706,701.5717 Q410.5744,701.5717 409.837,700.6511 Q409.0996,699.7305 409.0996,697.9852 Q409.0996,696.2399 409.837,695.3149 Q410.5744,694.3899 411.9706,694.3899 Q412.3633,694.3899 412.7254,694.4772 Q413.0876,694.5645 413.4017,694.7303 L413.4017,696.2486 Q413.0527,695.9258 412.7211,695.7731 Q412.3895,695.6203 412.0404,695.6203 Q411.2899,695.6203 410.906,696.2181 Q410.522,696.8159 410.522,697.9852 Q410.522,699.1545 410.906,699.7523 Q411.2899,700.35 412.0404,700.35 Q412.3895,700.35 412.7211,700.1973 Q413.0527,700.0446 413.4017,699.7217 L413.4017,701.2401 Z "/>
        <text fill="#000000" font-size="6.7018" font-style="italic" lengthAdjust="spacingAndGlyphs" textLength="87.6823" x="418.4455" y="696.9904">&lt;&lt;Information Holder&gt;&gt;</text>
        <text fill="#000000" font-size="6.7018" lengthAdjust="spacingAndGlyphs" textLength="34.0676" x="445.2529" y="704.7917">Upgrades</text>
        <rect fill="#FEFECE" filter="url(#f1)" height="21.1876" style="stroke: #A80036; stroke-width: 0.8377288240769469;" width="73.7201" x="649.6587" y="481.4148"/>
        <ellipse cx="658.036" cy="492.0086" fill="#ADD1B2" rx="6.1433" ry="6.1433" style="stroke: #A80036; stroke-width: 0.5584858827179646;"/>
        <path d="M659.694,495.1588 Q659.3711,495.3246 659.0133,495.4075 Q658.6556,495.4904 658.2629,495.4904 Q656.8667,495.4904 656.1293,494.5698 Q655.3919,493.6492 655.3919,491.9039 Q655.3919,490.1586 656.1293,489.2336 Q656.8667,488.3086 658.2629,488.3086 Q658.6556,488.3086 659.0177,488.3959 Q659.3798,488.4832 659.694,488.649 L659.694,490.1674 Q659.3449,489.8445 659.0133,489.6918 Q658.6817,489.5391 658.3327,489.5391 Q657.5822,489.5391 657.1983,490.1368 Q656.8143,490.7346 656.8143,491.9039 Q656.8143,493.0732 657.1983,493.671 Q657.5822,494.2687 658.3327,494.2687 Q658.6817,494.2687 659.0133,494.116 Q659.3449,493.9633 659.694,493.6404 L659.694,495.1588 Z "/>
        <text fill="#000000" font-size="6.7018" font-style="italic" lengthAdjust="spacingAndGlyphs" textLength="58.0825" x="664.7378" y="490.9091">&lt;&lt;Structurer&gt;&gt;</text>
        <text fill="#000000" font-size="6.7018" lengthAdjust="spacingAndGlyphs" textLength="31.8337" x="677.8622" y="498.7104">Company</text>
        <rect fill="#FEFECE" filter="url(#f1)" height="44.4258" style="stroke: #A80036; stroke-width: 0.8377288240769469;" width="103.3199" x="533.9125" y="572.448"/>
        <ellipse cx="542.2898" cy="583.0418" fill="#ADD1B2" rx="6.1433" ry="6.1433" style="stroke: #A80036; stroke-width: 0.5584858827179646;"/>
        <path d="M543.9478,586.192 Q543.6249,586.3578 543.2671,586.4407 Q542.9094,586.5236 542.5167,586.5236 Q541.1205,586.5236 540.3831,585.603 Q539.6457,584.6824 539.6457,582.9371 Q539.6457,581.1918 540.3831,580.2668 Q541.1205,579.3418 542.5167,579.3418 Q542.9094,579.3418 543.2715,579.4291 Q543.6336,579.5164 543.9478,579.6822 L543.9478,581.2006 Q543.5987,580.8777 543.2671,580.725 Q542.9355,580.5723 542.5865,580.5723 Q541.836,580.5723 541.4521,581.17 Q541.0681,581.7678 541.0681,582.9371 Q541.0681,584.1064 541.4521,584.7042 Q541.836,585.3019 542.5865,585.3019 Q542.9355,585.3019 543.2671,585.1492 Q543.5987,584.9965 543.9478,584.6736 L543.9478,586.192 Z "/>
        <text fill="#000000" font-size="6.7018" font-style="italic" lengthAdjust="spacingAndGlyphs" textLength="87.6823" x="548.9916" y="581.9423">&lt;&lt;Information Holder&gt;&gt;</text>
        <text fill="#000000" font-size="6.7018" lengthAdjust="spacingAndGlyphs" textLength="19.547" x="583.0593" y="589.7436">Stock</text>
        <line style="stroke: #A80036; stroke-width: 0.8377288240769469;" x1="534.471" x2="636.6739" y1="593.6356" y2="593.6356"/>
        <text fill="#000000" font-size="6.1433" lengthAdjust="spacingAndGlyphs" textLength="22.8979" x="537.2634" y="602.0129">symbol</text>
        <text fill="#000000" font-size="6.1433" lengthAdjust="spacingAndGlyphs" textLength="15.6376" x="537.2634" y="609.1641">price</text>
        <line style="stroke: #A80036; stroke-width: 0.8377288240769469;" x1="534.471" x2="636.6739" y1="612.4059" y2="612.4059"/>
        <rect fill="#FEFECE" filter="url(#f1)" height="37.2746" style="stroke: #A80036; stroke-width: 0.8377288240769469;" width="103.3199" x="670.8812" y="576.9159"/>
        <ellipse cx="679.2585" cy="587.5097" fill="#ADD1B2" rx="6.1433" ry="6.1433" style="stroke: #A80036; stroke-width: 0.5584858827179646;"/>
        <path d="M680.9165,590.6599 Q680.5936,590.8257 680.2358,590.9086 Q679.878,590.9915 679.4853,590.9915 Q678.0891,590.9915 677.3517,590.0709 Q676.6144,589.1502 676.6144,587.405 Q676.6144,585.6597 677.3517,584.7347 Q678.0891,583.8097 679.4853,583.8097 Q679.878,583.8097 680.2402,583.897 Q680.6023,583.9843 680.9165,584.1501 L680.9165,585.6684 Q680.5674,585.3456 680.2358,585.1929 Q679.9042,585.0401 679.5552,585.0401 Q678.8047,585.0401 678.4207,585.6379 Q678.0368,586.2357 678.0368,587.405 Q678.0368,588.5743 678.4207,589.1721 Q678.8047,589.7698 679.5552,589.7698 Q679.9042,589.7698 680.2358,589.6171 Q680.5674,589.4644 680.9165,589.1415 L680.9165,590.6599 Z "/>
        <text fill="#000000" font-size="6.7018" font-style="italic" lengthAdjust="spacingAndGlyphs" textLength="87.6823" x="685.9603" y="586.4102">&lt;&lt;Information Holder&gt;&gt;</text>
        <text fill="#000000" font-size="6.7018" lengthAdjust="spacingAndGlyphs" textLength="18.43" x="720.5864" y="594.2115">Good</text>
        <line style="stroke: #A80036; stroke-width: 0.8377288240769469;" x1="671.4397" x2="773.6426" y1="598.1035" y2="598.1035"/>
        <text fill="#000000" font-size="6.1433" lengthAdjust="spacingAndGlyphs" textLength="13.4037" x="674.2321" y="606.4808">type</text>
        <line style="stroke: #A80036; stroke-width: 0.8377288240769469;" x1="671.4397" x2="773.6426" y1="609.7226" y2="609.7226"/>
        <rect fill="#FEFECE" filter="url(#f1)" height="37.2746" style="stroke: #A80036; stroke-width: 0.8377288240769469;" width="93.2671" x="500.9618" y="190.1644"/>
        <ellipse cx="509.3391" cy="200.7582" fill="#ADD1B2" rx="6.1433" ry="6.1433" style="stroke: #A80036; stroke-width: 0.5584858827179646;"/>
        <path d="M510.9971,203.9084 Q510.6743,204.0742 510.3165,204.1571 Q509.9587,204.24 509.566,204.24 Q508.1698,204.24 507.4324,203.3194 Q506.695,202.3988 506.695,200.6535 Q506.695,198.9082 507.4324,197.9832 Q508.1698,197.0583 509.566,197.0583 Q509.9587,197.0583 510.3208,197.1455 Q510.683,197.2328 510.9971,197.3986 L510.9971,198.917 Q510.6481,198.5941 510.3165,198.4414 Q509.9849,198.2887 509.6358,198.2887 Q508.8854,198.2887 508.5014,198.8864 Q508.1174,199.4842 508.1174,200.6535 Q508.1174,201.8228 508.5014,202.4206 Q508.8854,203.0183 509.6358,203.0183 Q509.9849,203.0183 510.3165,202.8656 Q510.6481,202.7129 510.9971,202.39 L510.9971,203.9084 Z "/>
        <text fill="#000000" font-size="6.7018" font-style="italic" lengthAdjust="spacingAndGlyphs" textLength="77.6295" x="516.041" y="199.6587">&lt;&lt;Service Provider&gt;&gt;</text>
        <text fill="#000000" font-size="6.7018" lengthAdjust="spacingAndGlyphs" textLength="41.328" x="534.1917" y="207.4601">Transaction</text>
        <line style="stroke: #A80036; stroke-width: 0.8377288240769469;" x1="501.5203" x2="593.6705" y1="211.352" y2="211.352"/>
        <text fill="#000000" font-size="6.1433" lengthAdjust="spacingAndGlyphs" textLength="37.4186" x="504.3128" y="219.7293">participants</text>
        <line style="stroke: #A80036; stroke-width: 0.8377288240769469;" x1="501.5203" x2="593.6705" y1="222.9711" y2="222.9711"/>
        <rect fill="#FEFECE" filter="url(#f1)" height="44.4258" style="stroke: #A80036; stroke-width: 0.8377288240769469;" width="103.3199" x="249.0847" y="469.1281"/>
        <ellipse cx="257.462" cy="479.7219" fill="#ADD1B2" rx="6.1433" ry="6.1433" style="stroke: #A80036; stroke-width: 0.5584858827179646;"/>
        <path d="M259.12,482.8721 Q258.7971,483.0379 258.4393,483.1208 Q258.0816,483.2037 257.6889,483.2037 Q256.2927,483.2037 255.5553,482.2831 Q254.8179,481.3625 254.8179,479.6172 Q254.8179,477.8719 255.5553,476.9469 Q256.2927,476.022 257.6889,476.022 Q258.0816,476.022 258.4437,476.1092 Q258.8058,476.1965 259.12,476.3623 L259.12,477.8807 Q258.7709,477.5578 258.4393,477.4051 Q258.1077,477.2524 257.7587,477.2524 Q257.0082,477.2524 256.6243,477.8501 Q256.2403,478.4479 256.2403,479.6172 Q256.2403,480.7865 256.6243,481.3843 Q257.0082,481.982 257.7587,481.982 Q258.1077,481.982 258.4393,481.8293 Q258.7709,481.6766 259.12,481.3537 L259.12,482.8721 Z "/>
        <text fill="#000000" font-size="6.7018" font-style="italic" lengthAdjust="spacingAndGlyphs" textLength="87.6823" x="264.1638" y="478.6224">&lt;&lt;Information Holder&gt;&gt;</text>
        <text fill="#000000" font-size="6.7018" lengthAdjust="spacingAndGlyphs" textLength="20.664" x="297.673" y="486.4238">Police</text>
        <line style="stroke: #A80036; stroke-width: 0.8377288240769469;" x1="249.6432" x2="351.8461" y1="490.3157" y2="490.3157"/>
        <text fill="#000000" font-size="6.1433" lengthAdjust="spacingAndGlyphs" textLength="16.1961" x="252.4356" y="498.693">skills</text>
        <text fill="#000000" font-size="6.1433" lengthAdjust="spacingAndGlyphs" textLength="13.4037" x="252.4356" y="505.8442">ship</text>
        <line style="stroke: #A80036; stroke-width: 0.8377288240769469;" x1="249.6432" x2="351.8461" y1="509.0861" y2="509.0861"/>
        <rect fill="#FEFECE" filter="url(#f1)" height="44.4258" style="stroke: #A80036; stroke-width: 0.8377288240769469;" width="103.3199" x="3.3509" y="469.1281"/>
        <ellipse cx="11.7282" cy="479.7219" fill="#ADD1B2" rx="6.1433" ry="6.1433" style="stroke: #A80036; stroke-width: 0.5584858827179646;"/>
        <path d="M13.3862,482.8721 Q13.0633,483.0379 12.7056,483.1208 Q12.3478,483.2037 11.9551,483.2037 Q10.5589,483.2037 9.8215,482.2831 Q9.0841,481.3625 9.0841,479.6172 Q9.0841,477.8719 9.8215,476.9469 Q10.5589,476.022 11.9551,476.022 Q12.3478,476.022 12.7099,476.1092 Q13.0721,476.1965 13.3862,476.3623 L13.3862,477.8807 Q13.0372,477.5578 12.7056,477.4051 Q12.374,477.2524 12.0249,477.2524 Q11.2744,477.2524 10.8905,477.8501 Q10.5065,478.4479 10.5065,479.6172 Q10.5065,480.7865 10.8905,481.3843 Q11.2744,481.982 12.0249,481.982 Q12.374,481.982 12.7056,481.8293 Q13.0372,481.6766 13.3862,481.3537 L13.3862,482.8721 Z "/>
        <text fill="#000000" font-size="6.7018" font-style="italic" lengthAdjust="spacingAndGlyphs" textLength="87.6823" x="18.43" y="478.6224">&lt;&lt;Information Holder&gt;&gt;</text>
        <text fill="#000000" font-size="6.7018" lengthAdjust="spacingAndGlyphs" textLength="20.664" x="51.9392" y="486.4238">Pirate</text>
        <line style="stroke: #A80036; stroke-width: 0.8377288240769469;" x1="3.9094" x2="106.1123" y1="490.3157" y2="490.3157"/>
        <text fill="#000000" font-size="6.1433" lengthAdjust="spacingAndGlyphs" textLength="16.1961" x="6.7018" y="498.693">skills</text>
        <text fill="#000000" font-size="6.1433" lengthAdjust="spacingAndGlyphs" textLength="13.4037" x="6.7018" y="505.8442">ship</text>
        <line style="stroke: #A80036; stroke-width: 0.8377288240769469;" x1="3.9094" x2="106.1123" y1="509.0861" y2="509.0861"/>
        <rect fill="#FEFECE" filter="url(#f1)" height="44.4258" style="stroke: #A80036; stroke-width: 0.8377288240769469;" width="103.3199" x="126.2178" y="469.1281"/>
        <ellipse cx="134.5951" cy="479.7219" fill="#ADD1B2" rx="6.1433" ry="6.1433" style="stroke: #A80036; stroke-width: 0.5584858827179646;"/>
        <path d="M136.2531,482.8721 Q135.9302,483.0379 135.5724,483.1208 Q135.2147,483.2037 134.822,483.2037 Q133.4258,483.2037 132.6884,482.2831 Q131.951,481.3625 131.951,479.6172 Q131.951,477.8719 132.6884,476.9469 Q133.4258,476.022 134.822,476.022 Q135.2147,476.022 135.5768,476.1092 Q135.939,476.1965 136.2531,476.3623 L136.2531,477.8807 Q135.904,477.5578 135.5724,477.4051 Q135.2408,477.2524 134.8918,477.2524 Q134.1413,477.2524 133.7574,477.8501 Q133.3734,478.4479 133.3734,479.6172 Q133.3734,480.7865 133.7574,481.3843 Q134.1413,481.982 134.8918,481.982 Q135.2408,481.982 135.5724,481.8293 Q135.904,481.6766 136.2531,481.3537 L136.2531,482.8721 Z "/>
        <text fill="#000000" font-size="6.7018" font-style="italic" lengthAdjust="spacingAndGlyphs" textLength="87.6823" x="141.2969" y="478.6224">&lt;&lt;Information Holder&gt;&gt;</text>
        <text fill="#000000" font-size="6.7018" lengthAdjust="spacingAndGlyphs" textLength="22.8979" x="173.6891" y="486.4238">Trader</text>
        <line style="stroke: #A80036; stroke-width: 0.8377288240769469;" x1="126.7763" x2="228.9792" y1="490.3157" y2="490.3157"/>
        <text fill="#000000" font-size="6.1433" lengthAdjust="spacingAndGlyphs" textLength="16.1961" x="129.5687" y="498.693">skills</text>
        <text fill="#000000" font-size="6.1433" lengthAdjust="spacingAndGlyphs" textLength="13.4037" x="129.5687" y="505.8442">ship</text>
        <line style="stroke: #A80036; stroke-width: 0.8377288240769469;" x1="126.7763" x2="228.9792" y1="509.0861" y2="509.0861"/>
        <rect fill="#FEFECE" filter="url(#f1)" height="21.1876" style="stroke: #A80036; stroke-width: 0.8377288240769469;" width="79.305" x="276.5901" y="141.2969"/>
        <ellipse cx="284.9674" cy="151.8907" fill="#ADD1B2" rx="6.1433" ry="6.1433" style="stroke: #A80036; stroke-width: 0.5584858827179646;"/>
        <path d="M286.6254,155.0409 Q286.3026,155.2067 285.9448,155.2896 Q285.587,155.3725 285.1943,155.3725 Q283.7981,155.3725 283.0607,154.4519 Q282.3233,153.5313 282.3233,151.786 Q282.3233,150.0407 283.0607,149.1157 Q283.7981,148.1907 285.1943,148.1907 Q285.587,148.1907 285.9491,148.278 Q286.3113,148.3653 286.6254,148.5311 L286.6254,150.0494 Q286.2764,149.7266 285.9448,149.5739 Q285.6132,149.4212 285.2641,149.4212 Q284.5137,149.4212 284.1297,150.0189 Q283.7457,150.6167 283.7457,151.786 Q283.7457,152.9553 284.1297,153.5531 Q284.5137,154.1508 285.2641,154.1508 Q285.6132,154.1508 285.9448,153.9981 Q286.2764,153.8454 286.6254,153.5225 L286.6254,155.0409 Z "/>
        <text fill="#000000" font-size="6.7018" font-style="italic" lengthAdjust="spacingAndGlyphs" textLength="63.6674" x="291.6693" y="150.7912">&lt;&lt;Coordinator&gt;&gt;</text>
        <text fill="#000000" font-size="6.7018" lengthAdjust="spacingAndGlyphs" textLength="33.5092" x="306.7484" y="158.5925">Approach</text>
        <rect fill="#FEFECE" filter="url(#f1)" height="37.2746" style="stroke: #A80036; stroke-width: 0.8377288240769469;" width="93.2671" x="246.4319" y="374.1855"/>
        <ellipse cx="254.8092" cy="384.7793" fill="#ADD1B2" rx="6.1433" ry="6.1433" style="stroke: #A80036; stroke-width: 0.5584858827179646;"/>
        <path d="M256.4672,387.9295 Q256.1443,388.0953 255.7865,388.1782 Q255.4288,388.2611 255.0361,388.2611 Q253.6399,388.2611 252.9025,387.3405 Q252.1651,386.4199 252.1651,384.6746 Q252.1651,382.9293 252.9025,382.0043 Q253.6399,381.0794 255.0361,381.0794 Q255.4288,381.0794 255.7909,381.1666 Q256.153,381.2539 256.4672,381.4197 L256.4672,382.9381 Q256.1181,382.6152 255.7865,382.4625 Q255.4549,382.3098 255.1059,382.3098 Q254.3554,382.3098 253.9715,382.9075 Q253.5875,383.5053 253.5875,384.6746 Q253.5875,385.8439 253.9715,386.4417 Q254.3554,387.0394 255.1059,387.0394 Q255.4549,387.0394 255.7865,386.8867 Q256.1181,386.734 256.4672,386.4111 L256.4672,387.9295 Z "/>
        <text fill="#000000" font-size="6.7018" font-style="italic" lengthAdjust="spacingAndGlyphs" textLength="77.6295" x="261.511" y="383.6798">&lt;&lt;Service Provider&gt;&gt;</text>
        <text fill="#000000" font-size="6.7018" lengthAdjust="spacingAndGlyphs" textLength="36.3016" x="282.175" y="391.4812">Encounter</text>
        <line style="stroke: #A80036; stroke-width: 0.8377288240769469;" x1="246.9904" x2="339.1406" y1="395.3731" y2="395.3731"/>
        <text fill="#000000" font-size="6.1433" lengthAdjust="spacingAndGlyphs" textLength="37.4186" x="249.7828" y="403.7504">combatants</text>
        <line style="stroke: #A80036; stroke-width: 0.8377288240769469;" x1="246.9904" x2="339.1406" y1="406.9922" y2="406.9922"/>
        <rect fill="#FEFECE" filter="url(#f1)" height="21.1876" style="stroke: #A80036; stroke-width: 0.8377288240769469;" width="72.6032" x="465.3584" y="282.5939"/>
        <ellipse cx="473.7357" cy="293.1876" fill="#ADD1B2" rx="6.1433" ry="6.1433" style="stroke: #A80036; stroke-width: 0.5584858827179646;"/>
        <path d="M475.3937,296.3378 Q475.0708,296.5036 474.713,296.5865 Q474.3552,296.6694 473.9625,296.6694 Q472.5663,296.6694 471.8289,295.7488 Q471.0916,294.8282 471.0916,293.0829 Q471.0916,291.3377 471.8289,290.4127 Q472.5663,289.4877 473.9625,289.4877 Q474.3552,289.4877 474.7174,289.5749 Q475.0795,289.6622 475.3937,289.828 L475.3937,291.3464 Q475.0446,291.0235 474.713,290.8708 Q474.3814,290.7181 474.0323,290.7181 Q473.2819,290.7181 472.8979,291.3158 Q472.514,291.9136 472.514,293.0829 Q472.514,294.2522 472.8979,294.85 Q473.2819,295.4478 474.0323,295.4478 Q474.3814,295.4478 474.713,295.295 Q475.0446,295.1423 475.3937,294.8195 L475.3937,296.3378 Z "/>
        <text fill="#000000" font-size="6.7018" font-style="italic" lengthAdjust="spacingAndGlyphs" textLength="56.9656" x="480.4375" y="292.0881">&lt;&lt;Interfacer&gt;&gt;</text>
        <text fill="#000000" font-size="6.7018" lengthAdjust="spacingAndGlyphs" textLength="17.3131" x="500.2637" y="299.8895">Bank</text>
        <rect fill="#FEFECE" filter="url(#f1)" height="21.1876" style="stroke: #A80036; stroke-width: 0.8377288240769469;" width="72.6032" x="649.6587" y="282.5939"/>
        <ellipse cx="658.036" cy="293.1876" fill="#ADD1B2" rx="6.1433" ry="6.1433" style="stroke: #A80036; stroke-width: 0.5584858827179646;"/>
        <path d="M659.694,296.3378 Q659.3711,296.5036 659.0133,296.5865 Q658.6556,296.6694 658.2629,296.6694 Q656.8667,296.6694 656.1293,295.7488 Q655.3919,294.8282 655.3919,293.0829 Q655.3919,291.3377 656.1293,290.4127 Q656.8667,289.4877 658.2629,289.4877 Q658.6556,289.4877 659.0177,289.5749 Q659.3798,289.6622 659.694,289.828 L659.694,291.3464 Q659.3449,291.0235 659.0133,290.8708 Q658.6817,290.7181 658.3327,290.7181 Q657.5822,290.7181 657.1983,291.3158 Q656.8143,291.9136 656.8143,293.0829 Q656.8143,294.2522 657.1983,294.85 Q657.5822,295.4478 658.3327,295.4478 Q658.6817,295.4478 659.0133,295.295 Q659.3449,295.1423 659.694,294.8195 L659.694,296.3378 Z "/>
        <text fill="#000000" font-size="6.7018" font-style="italic" lengthAdjust="spacingAndGlyphs" textLength="56.9656" x="664.7378" y="292.0881">&lt;&lt;Interfacer&gt;&gt;</text>
        <text fill="#000000" font-size="6.7018" lengthAdjust="spacingAndGlyphs" textLength="24.0149" x="681.2132" y="299.8895">Market</text>
        <rect fill="#FEFECE" filter="url(#f1)" height="21.1876" style="stroke: #A80036; stroke-width: 0.8377288240769469;" width="72.6032" x="557.5085" y="282.5939"/>
        <ellipse cx="565.8858" cy="293.1876" fill="#ADD1B2" rx="6.1433" ry="6.1433" style="stroke: #A80036; stroke-width: 0.5584858827179646;"/>
        <path d="M567.5438,296.3378 Q567.221,296.5036 566.8632,296.5865 Q566.5054,296.6694 566.1127,296.6694 Q564.7165,296.6694 563.9791,295.7488 Q563.2417,294.8282 563.2417,293.0829 Q563.2417,291.3377 563.9791,290.4127 Q564.7165,289.4877 566.1127,289.4877 Q566.5054,289.4877 566.8675,289.5749 Q567.2297,289.6622 567.5438,289.828 L567.5438,291.3464 Q567.1948,291.0235 566.8632,290.8708 Q566.5316,290.7181 566.1825,290.7181 Q565.4321,290.7181 565.0481,291.3158 Q564.6641,291.9136 564.6641,293.0829 Q564.6641,294.2522 565.0481,294.85 Q565.4321,295.4478 566.1825,295.4478 Q566.5316,295.4478 566.8632,295.295 Q567.1948,295.1423 567.5438,294.8195 L567.5438,296.3378 Z "/>
        <text fill="#000000" font-size="6.7018" font-style="italic" lengthAdjust="spacingAndGlyphs" textLength="56.9656" x="572.5877" y="292.0881">&lt;&lt;Interfacer&gt;&gt;</text>
        <text fill="#000000" font-size="6.7018" lengthAdjust="spacingAndGlyphs" textLength="30.1582" x="585.9913" y="299.8895">Shipyard</text>
        <path d="M389.9628,25.8076 C389.9628,40.1998 389.9628,67.3478 389.9628,90.4747 C389.9628,90.4747 389.9628,90.4747 389.9628,392.6156 C389.9628,419.3481 402.8616,447.3299 414.048,466.5703 " fill="none" style="stroke: #A80036; stroke-width: 0.5584858827179646;"/>
        <polygon fill="#A80036" points="415.5431,469.108,414.9163,463.6434,414.1256,466.7022,411.0668,465.9115,415.5431,469.108" style="stroke: #A80036; stroke-width: 0.5584858827179646;"/>
        <text fill="#000000" font-size="7.2603" lengthAdjust="spacingAndGlyphs" textLength="26.8073" x="390.5213" y="252.4356">creates</text>
        <path d="M410.591,25.7294 C439.1793,39.7083 490.7025,64.9128 520.6971,79.5842 " fill="none" style="stroke: #A80036; stroke-width: 0.5584858827179646;"/>
        <polygon fill="#A80036" points="523.3527,80.8799,519.8213,76.6627,520.8449,79.6516,517.856,80.6752,523.3527,80.8799" style="stroke: #A80036; stroke-width: 0.5584858827179646;"/>
        <text fill="#000000" font-size="7.2603" lengthAdjust="spacingAndGlyphs" textLength="36.3016" x="463.1244" y="50.2637">alternates</text>
        <text fill="#000000" font-size="7.2603" lengthAdjust="spacingAndGlyphs" textLength="3.9094" x="512.9946" y="75.2571">*</text>
        <path d="M358.8104,25.8244 C350.78,29.8343 342.8835,35.2516 337.4651,42.4449 C315.726,71.3075 314.4504,116.3438 315.3217,138.3537 " fill="none" style="stroke: #A80036; stroke-width: 0.5584858827179646;"/>
        <polygon fill="#A80036" points="315.4501,141.1741,317.4519,136.0508,315.3225,138.3846,312.9887,136.2551,315.4501,141.1741" style="stroke: #A80036; stroke-width: 0.5584858827179646;"/>
        <text fill="#000000" font-size="7.2603" lengthAdjust="spacingAndGlyphs" textLength="36.3016" x="338.0236" y="50.2637">alternates</text>
        <text fill="#000000" font-size="7.2603" lengthAdjust="spacingAndGlyphs" textLength="3.9094" x="310.1352" y="135.5455">*</text>
        <path d="M517.3165,402.7644 C502.4848,417.767 474.2757,446.3 453.9647,466.8445 " fill="none" style="stroke: #A80036; stroke-width: 0.5584858827179646;"/>
        <polygon fill="#A80036" points="451.7771,469.0572,456.8997,467.0537,453.7404,467.0715,453.7226,463.9123,451.7771,469.0572" style="stroke: #A80036; stroke-width: 0.5584858827179646;"/>
        <text fill="#000000" font-size="7.2603" lengthAdjust="spacingAndGlyphs" textLength="28.4828" x="476.5281" y="450.1396">controls</text>
        <path d="M435.5034,513.8193 C439.2765,529.2464 444.3699,550.0717 448.4457,566.7386 " fill="none" style="stroke: #A80036; stroke-width: 0.5584858827179646;"/>
        <polygon fill="#A80036" points="449.1427,569.5875,450.1179,564.1742,448.479,566.8751,445.7781,565.2361,449.1427,569.5875" style="stroke: #A80036; stroke-width: 0.5584858827179646;"/>
        <text fill="#000000" font-size="7.2603" lengthAdjust="spacingAndGlyphs" textLength="34.0676" x="443.0189" y="538.3804">access to</text>
        <path d="M559.8268,101.6556 C594.8154,122.811 679.0183,173.7243 717.0289,196.7088 " fill="none" style="stroke: #A80036; stroke-width: 0.5584858827179646;"/>
        <polygon fill="#A80036" points="719.4639,198.1821,716.3175,193.6704,717.074,196.7378,714.0066,197.4942,719.4639,198.1821" style="stroke: #A80036; stroke-width: 0.5584858827179646;"/>
        <text fill="#000000" font-size="7.2603" lengthAdjust="spacingAndGlyphs" textLength="29.0413" x="674.7906" y="154.1421">updates</text>
        <path d="M743.9032,219.5374 C755.57,234.8841 777.7251,264.0393 790.386,280.7 " fill="none" style="stroke: #A80036; stroke-width: 0.5584858827179646;"/>
        <polygon fill="#A80036" points="792.1843,283.0641,790.9256,277.7096,790.4964,280.8396,787.3664,280.4103,792.1843,283.0641" style="stroke: #A80036; stroke-width: 0.5584858827179646;"/>
        <text fill="#000000" font-size="7.2603" lengthAdjust="spacingAndGlyphs" textLength="30.1582" x="770.2917" y="252.4356">contains</text>
        <text fill="#000000" font-size="7.2603" lengthAdjust="spacingAndGlyphs" textLength="13.4037" x="774.3868" y="277.4444">120</text>
        <path d="M802.3487,303.8711 C806.1074,318.4894 813.4068,346.8868 818.7124,367.5178 " fill="none" style="stroke: #A80036; stroke-width: 0.5584858827179646;"/>
        <polygon fill="#A80036" points="819.4161,370.2482,820.3274,364.8238,818.7204,367.5438,816.0004,365.9368,819.4161,370.2482" style="stroke: #A80036; stroke-width: 0.5584858827179646;"/>
        <text fill="#000000" font-size="7.2603" lengthAdjust="spacingAndGlyphs" textLength="30.1582" x="812.1781" y="339.5594">contains</text>
        <text fill="#000000" font-size="7.2603" lengthAdjust="spacingAndGlyphs" textLength="13.4037" x="803.605" y="364.6143">2..4</text>
        <path d="M794.9711,414.5021 C766.8737,434.4411 725.9423,463.4886 703.251,479.5947 " fill="none" style="stroke: #A80036; stroke-width: 0.5584858827179646;"/>
        <polygon fill="#A80036" points="700.8439,481.3031,706.2347,480.2102,703.1195,479.6846,703.645,476.5693,700.8439,481.3031" style="stroke: #A80036; stroke-width: 0.5584858827179646;"/>
        <text fill="#000000" font-size="7.2603" lengthAdjust="spacingAndGlyphs" textLength="30.1582" x="756.3295" y="450.1396">contains</text>
        <text fill="#000000" font-size="7.2603" lengthAdjust="spacingAndGlyphs" textLength="3.9094" x="699.4029" y="475.6774">*</text>
        <path d="M677.0078,502.1469 C661.6326,517.6109 630.8433,548.5661 609.2299,570.3018 " fill="none" style="stroke: #A80036; stroke-width: 0.5584858827179646;"/>
        <polygon fill="#A80036" points="607.1691,572.3754,612.2981,570.3884,609.1388,570.3961,609.1312,567.2368,607.1691,572.3754" style="stroke: #A80036; stroke-width: 0.5584858827179646;"/>
        <text fill="#000000" font-size="7.2603" lengthAdjust="spacingAndGlyphs" textLength="17.8715" x="649.1002" y="538.3804">owns</text>
        <path d="M689.9367,502.1994 C695.7282,518.5111 707.6128,551.9656 715.3925,573.8761 " fill="none" style="stroke: #A80036; stroke-width: 0.5584858827179646;"/>
        <polygon fill="#A80036" points="716.4145,576.7551,716.8389,571.271,715.4807,574.1234,712.6283,572.7652,716.4145,576.7551" style="stroke: #A80036; stroke-width: 0.5584858827179646;"/>
        <text fill="#000000" font-size="7.2603" lengthAdjust="spacingAndGlyphs" textLength="17.8715" x="703.2733" y="538.3804">owns</text>
        <text fill="#000000" font-size="7.2603" lengthAdjust="spacingAndGlyphs" textLength="3.9094" x="710.5157" y="571.1861">*</text>
        <path d="M659.7841,502.1224 C627.2355,513.9902 570.8061,535.3869 523.9994,557.3689 C514.4487,561.8541 504.368,567.0637 494.9581,572.1442 " fill="none" style="stroke: #A80036; stroke-width: 0.5584858827179646;"/>
        <polygon fill="#A80036" points="492.3232,573.5734,497.8067,573.1419,494.7781,572.2426,495.6774,569.214,492.3232,573.5734" style="stroke: #A80036; stroke-width: 0.5584858827179646;"/>
        <text fill="#000000" font-size="7.2603" lengthAdjust="spacingAndGlyphs" textLength="17.8715" x="586.5498" y="538.3804">owns</text>
        <text fill="#000000" font-size="7.2603" lengthAdjust="spacingAndGlyphs" textLength="3.9094" x="496.697" y="565.0866">*</text>
        <path d="M506.33,227.6846 C487.905,237.9351 467.6001,252.5093 455.3056,271.4241 C415.7793,332.2338 420.9336,422.9643 426.3275,466.233 " fill="none" style="stroke: #A80036; stroke-width: 0.5584858827179646;"/>
        <polygon fill="#A80036" points="426.6827,469.0137,428.2625,463.745,426.3292,466.2437,423.8305,464.3104,426.6827,469.0137" style="stroke: #A80036; stroke-width: 0.5584858827179646;"/>
        <text fill="#000000" font-size="7.2603" lengthAdjust="spacingAndGlyphs" textLength="53.6146" x="431.2907" y="339.5594">exchanges info</text>
        <path d="M594.0223,225.0067 C607.2417,230.3397 621.3323,236.9332 633.4626,244.6168 C649.4074,254.7182 665.0226,269.8738 675.0195,280.4509 " fill="none" style="stroke: #A80036; stroke-width: 0.5584858827179646;"/>
        <polygon fill="#A80036" points="676.9463,282.5023,675.1347,277.3087,675.035,280.4664,671.8773,280.3668,676.9463,282.5023" style="stroke: #A80036; stroke-width: 0.5584858827179646;"/>
        <text fill="#000000" font-size="7.2603" lengthAdjust="spacingAndGlyphs" textLength="53.6146" x="646.8663" y="252.4356">exchanges info</text>
        <path d="M558.32,227.6137 C561.5213,233.0562 565.0034,239.056 568.1198,244.6168 C574.7602,256.4534 582.0261,270.1123 587.1306,279.831 " fill="none" style="stroke: #A80036; stroke-width: 0.5584858827179646;"/>
        <polygon fill="#A80036" points="588.5157,282.4632,588.1593,276.9743,587.2186,279.9903,584.2026,279.0496,588.5157,282.4632" style="stroke: #A80036; stroke-width: 0.5584858827179646;"/>
        <text fill="#000000" font-size="7.2603" lengthAdjust="spacingAndGlyphs" textLength="53.6146" x="574.2631" y="252.4356">exchanges info</text>
        <path d="M523.9234,227.6316 C518.8289,232.6233 513.9656,238.393 510.5957,244.6168 C504.7394,255.4313 502.6507,269.4035 501.9403,279.4876 " fill="none" style="stroke: #A80036; stroke-width: 0.5584858827179646;"/>
        <polygon fill="#A80036" points="501.761,282.4838,504.2911,277.5998,501.9278,279.6964,499.8312,277.333,501.761,282.4838" style="stroke: #A80036; stroke-width: 0.5584858827179646;"/>
        <text fill="#000000" font-size="7.2603" lengthAdjust="spacingAndGlyphs" textLength="53.6146" x="511.1542" y="252.4356">exchagnes info</text>
        <path d="M455.3056,621.2915 C455.3056,641.4411 455.3056,668.7777 455.3056,684.6553 " fill="none" style="stroke: #A80036; stroke-width: 0.5584858827179646;"/>
        <polygon fill="#A80036" points="455.3056,687.4823,457.5396,682.456,455.3056,684.6899,453.0717,682.456,455.3056,687.4823" style="stroke: #A80036; stroke-width: 0.5584858827179646;"/>
        <text fill="#000000" font-size="7.2603" lengthAdjust="spacingAndGlyphs" textLength="25.1319" x="455.8641" y="656.7794">applies</text>
        <text fill="#000000" font-size="7.2603" lengthAdjust="spacingAndGlyphs" textLength="3.9094" x="450.2653" y="681.8817">*</text>
        <path d="M315.3306,162.0067 C311.9507,197.3773 300.084,321.5404 295.3329,371.2507 " fill="none" style="stroke: #A80036; stroke-width: 0.5584858827179646;"/>
        <polygon fill="#A80036" points="295.0576,374.1319,297.7596,369.3409,295.3233,371.3522,293.312,368.9158,295.0576,374.1319" style="stroke: #A80036; stroke-width: 0.5584858827179646;"/>
        <text fill="#000000" font-size="7.2603" lengthAdjust="spacingAndGlyphs" textLength="27.9243" x="307.8653" y="252.4356">initiates</text>
        <text fill="#000000" font-size="7.2603" lengthAdjust="spacingAndGlyphs" textLength="17.8715" x="275.385" y="368.5807">0..20</text>
        <path d="M305.6146,411.073 C315.11,423.883 329.223,440.8358 344.7254,452.3736 C354.1124,459.3602 364.9677,465.4622 375.7258,470.6254 " fill="none" style="stroke: #A80036; stroke-width: 0.5584858827179646;"/>
        <polygon fill="#A80036" points="378.458,471.9178,374.8688,467.7497,375.9335,470.7242,372.959,471.7888,378.458,471.9178" style="stroke: #A80036; stroke-width: 0.5584858827179646;"/>
        <text fill="#000000" font-size="7.2603" lengthAdjust="spacingAndGlyphs" textLength="29.0413" x="345.2839" y="450.1396">includes</text>
        <path d="M291.5179,411.1054 C290.6433,422.8743 290.0915,438.5829 291.6693,452.3736 C292.1864,456.8939 293.0342,461.6556 294.0071,466.2307 " fill="none" style="stroke: #A80036; stroke-width: 0.5584858827179646;"/>
        <polygon fill="#A80036" points="294.6276,469.0511,295.7293,463.6621,294.0275,466.3239,291.3658,464.6221,294.6276,469.0511" style="stroke: #A80036; stroke-width: 0.5584858827179646;"/>
        <text fill="#000000" font-size="7.2603" lengthAdjust="spacingAndGlyphs" textLength="29.0413" x="292.2277" y="450.1396">includes</text>
        <path d="M249.6052,411.1003 C210.0666,427.3043 151.7144,451.2192 109.1985,468.6439 " fill="none" style="stroke: #A80036; stroke-width: 0.5584858827179646;"/>
        <polygon fill="#A80036" points="106.4212,469.7821,111.9193,469.9423,109.0049,468.7228,110.2244,465.8084,106.4212,469.7821" style="stroke: #A80036; stroke-width: 0.5584858827179646;"/>
        <text fill="#000000" font-size="7.2603" lengthAdjust="spacingAndGlyphs" textLength="29.0413" x="167.6854" y="450.1396">includes</text>
        <path d="M272.1407,411.1003 C253.5241,426.8385 226.3041,449.8509 205.8702,467.126 " fill="none" style="stroke: #A80036; stroke-width: 0.5584858827179646;"/>
        <polygon fill="#A80036" points="203.6647,468.9908,208.9454,467.4514,205.7971,467.1878,206.0607,464.0396,203.6647,468.9908" style="stroke: #A80036; stroke-width: 0.5584858827179646;"/>
        <text fill="#000000" font-size="7.2603" lengthAdjust="spacingAndGlyphs" textLength="29.0413" x="233.0282" y="450.1396">includes</text>
        <path d="M501.694,303.8515 C501.9381,313.6775 502.878,328.9672 506.1278,341.7934 C509.4352,354.8463 515.7036,368.8844 520.5736,378.7015 " fill="none" style="stroke: #A80036; stroke-width: 0.5584858827179646;"/>
        <polygon fill="#A80036" points="521.9067,381.3543,521.6471,375.8599,520.6535,378.8589,517.6545,377.8652,521.9067,381.3543" style="stroke: #A80036; stroke-width: 0.5584858827179646;"/>
        <text fill="#000000" font-size="7.2603" lengthAdjust="spacingAndGlyphs" textLength="37.977" x="506.6863" y="339.5594">displays to</text>
        <path d="M670.5796,303.8571 C655.5228,313.6881 631.8821,328.9806 611.1232,341.7934 C589.4539,355.1708 564.2886,370.0097 547.2397,379.9614 " fill="none" style="stroke: #A80036; stroke-width: 0.5584858827179646;"/>
        <polygon fill="#A80036" points="544.7845,381.3939,550.2519,380.7915,547.1967,379.9871,548.0011,376.932,544.7845,381.3939" style="stroke: #A80036; stroke-width: 0.5584858827179646;"/>
        <text fill="#000000" font-size="7.2603" lengthAdjust="spacingAndGlyphs" textLength="37.977" x="626.2023" y="339.5594">displays to</text>
        <path d="M586.9463,303.8549 C574.7602,321.7783 549.3636,359.126 535.9996,378.7791 " fill="none" style="stroke: #A80036; stroke-width: 0.5584858827179646;"/>
        <polygon fill="#A80036" points="534.2744,381.3157,538.9488,378.4167,535.8452,379.007,535.2549,375.9034,534.2744,381.3157" style="stroke: #A80036; stroke-width: 0.5584858827179646;"/>
        <text fill="#000000" font-size="7.2603" lengthAdjust="spacingAndGlyphs" textLength="37.977" x="567.5613" y="339.5594">displays to</text>
        <path d="M685.9882,303.8398 C686.0832,336.8267 686.3791,441.5814 686.4797,478.4655 " fill="none" style="stroke: #A80036; stroke-width: 0.5584858827179646;"/>
        <polygon fill="#A80036" points="686.4908,481.412,688.7104,476.3793,686.4829,478.6196,684.2426,476.3921,686.4908,481.412" style="stroke: #A80036; stroke-width: 0.5584858827179646;"/>
        <text fill="#000000" font-size="7.2603" lengthAdjust="spacingAndGlyphs" textLength="30.7167" x="687.0773" y="394.8495">gets info</text>
        <text fill="#000000" font-size="7.2603" lengthAdjust="spacingAndGlyphs" textLength="3.9094" x="681.3718" y="475.8143">*</text>
        <path d="M598.1496,303.9146 C601.4167,311.5614 606.0019,322.3056 610.0062,331.7406 C627.699,373.412 629.7654,384.899 649.6587,425.5662 C658.9463,444.5553 671.1604,465.7688 678.9234,478.8709 " fill="none" style="stroke: #A80036; stroke-width: 0.5584858827179646;"/>
        <polygon fill="#A80036" points="680.4201,481.3802,679.7644,475.919,678.9899,478.9818,675.927,478.2073,680.4201,481.3802" style="stroke: #A80036; stroke-width: 0.5584858827179646;"/>
        <text fill="#000000" font-size="7.2603" lengthAdjust="spacingAndGlyphs" textLength="30.7167" x="650.2172" y="394.8495">gets info</text>
        <text fill="#000000" font-size="7.2603" lengthAdjust="spacingAndGlyphs" textLength="3.9094" x="673.7454" y="475.7743">*</text>
    </g>
</svg>
