<?xml version="1.0" encoding="UTF-8"?><svg xmlns="http://www.w3.org/2000/svg" xmlns:xlink="http://www.w3.org/1999/xlink" height="579.3612pt" style="width:894px;height:579px;" version="1.1" viewBox="0 0 894 579" width="894.6297pt">
    <defs>
        <filter height="300%" id="f1" width="300%" x="-1" y="-1">
            <feGaussianBlur result="blurOut" stdDeviation="1.2636012636012637"/>
            <feColorMatrix in="blurOut" result="blurOut2" type="matrix" values="0 0 0 0 0 0 0 0 0 0 0 0 0 0 0 0 0 0 .4 0"/>
            <feOffset dx="2.5272025272025274" dy="2.5272025272025274" in="blurOut2" result="blurOut3"/>
            <feBlend in="SourceGraphic" in2="blurOut3" mode="normal"/>
        </filter>
    </defs>
    <g>
        <rect fill="#FEFECE" filter="url(#f1)" height="25.3905" style="stroke: #A80036; stroke-width: 0.9477009477009477;" width="78.3433" x="350.8073" y="5.0544"/>
        <ellipse cx="360.2843" cy="17.7496" fill="#ADD1B2" rx="6.9498" ry="6.9498" style="stroke: #A80036; stroke-width: 0.6318006318006318;"/>
        <path d="M362.0316,15.1435 Q362.1304,15.0053 362.2488,14.9362 Q362.3673,14.8671 362.5055,14.8671 Q362.7424,14.8671 362.8905,15.0299 Q363.0386,15.1928 363.0386,15.5778 L363.0386,16.4959 Q363.0386,16.8809 362.8905,17.0487 Q362.7424,17.2166 362.5055,17.2166 Q362.2883,17.2166 362.16,17.0882 Q362.0316,16.9698 361.9625,16.644 Q361.9329,16.4169 361.8145,16.2985 Q361.6071,16.0616 361.2221,15.9234 Q360.8371,15.7851 360.4423,15.7851 Q359.9585,15.7851 359.5587,15.9925 Q359.1589,16.1998 358.848,16.6736 Q358.537,17.1475 358.537,17.799 L358.537,18.49 Q358.537,19.2699 359.0997,19.7882 Q359.6624,20.3065 360.6693,20.3065 Q361.2616,20.3065 361.6762,20.1485 Q361.923,20.0498 362.1896,19.7734 Q362.3574,19.6056 362.4512,19.5562 Q362.545,19.5068 362.6733,19.5068 Q362.8806,19.5068 363.0435,19.6697 Q363.2064,19.8326 363.2064,20.0498 Q363.2064,20.267 362.9892,20.5236 Q362.6733,20.8889 362.1698,21.0962 Q361.4887,21.3825 360.6693,21.3825 Q359.7117,21.3825 358.9516,20.9876 Q358.3297,20.6717 357.8953,19.9955 Q357.461,19.3193 357.461,18.5098 L357.461,17.7793 Q357.461,16.9402 357.8509,16.2146 Q358.2408,15.489 358.9319,15.099 Q359.6229,14.7091 360.4028,14.7091 Q360.8668,14.7091 361.2764,14.8128 Q361.6861,14.9164 362.0316,15.1435 Z "/>
        <text fill="#000000" font-size="7.5816" font-style="italic" lengthAdjust="spacingAndGlyphs" textLength="60.6529" x="367.8659" y="15.795">&lt;&lt;Cooridinator&gt;&gt;</text>
        <text fill="#000000" font-size="7.5816" lengthAdjust="spacingAndGlyphs" textLength="21.4812" x="387.4517" y="25.3313">Game</text>
        <rect fill="#FEFECE" filter="url(#f1)" height="25.3905" style="stroke: #A80036; stroke-width: 0.9477009477009477;" width="92.2429" x="491.067" y="80.8705"/>
        <ellipse cx="500.5441" cy="93.5657" fill="#ADD1B2" rx="6.9498" ry="6.9498" style="stroke: #A80036; stroke-width: 0.6318006318006318;"/>
        <path d="M502.2914,90.9595 Q502.3901,90.8213 502.5086,90.7522 Q502.627,90.6831 502.7652,90.6831 Q503.0021,90.6831 503.1502,90.846 Q503.2983,91.0089 503.2983,91.3939 L503.2983,92.312 Q503.2983,92.697 503.1502,92.8648 Q503.0021,93.0326 502.7652,93.0326 Q502.548,93.0326 502.4197,92.9043 Q502.2914,92.7858 502.2223,92.4601 Q502.1927,92.233 502.0742,92.1146 Q501.8669,91.8776 501.4819,91.7394 Q501.0969,91.6012 500.702,91.6012 Q500.2183,91.6012 499.8185,91.8085 Q499.4187,92.0158 499.1077,92.4897 Q498.7967,92.9635 498.7967,93.6151 L498.7967,94.3061 Q498.7967,95.086 499.3594,95.6043 Q499.9221,96.1225 500.9291,96.1225 Q501.5214,96.1225 501.936,95.9646 Q502.1828,95.8659 502.4493,95.5895 Q502.6171,95.4216 502.7109,95.3723 Q502.8047,95.3229 502.933,95.3229 Q503.1404,95.3229 503.3032,95.4858 Q503.4661,95.6487 503.4661,95.8659 Q503.4661,96.0831 503.2489,96.3397 Q502.933,96.705 502.4296,96.9123 Q501.7484,97.1986 500.9291,97.1986 Q499.9715,97.1986 499.2113,96.8037 Q498.5894,96.4878 498.1551,95.8116 Q497.7207,95.1354 497.7207,94.3259 L497.7207,93.5953 Q497.7207,92.7562 498.1106,92.0306 Q498.5006,91.3051 499.1916,90.9151 Q499.8826,90.5252 500.6625,90.5252 Q501.1265,90.5252 501.5362,90.6288 Q501.9459,90.7325 502.2914,90.9595 Z "/>
        <text fill="#000000" font-size="7.5816" font-style="italic" lengthAdjust="spacingAndGlyphs" textLength="74.5525" x="508.1257" y="91.6111">&lt;&lt;Service Provider&gt;&gt;</text>
        <text fill="#000000" font-size="7.5816" lengthAdjust="spacingAndGlyphs" textLength="15.795" x="537.5044" y="101.1473">Turn</text>
        <rect fill="#FEFECE" filter="url(#f1)" height="25.3905" style="stroke: #A80036; stroke-width: 0.9477009477009477;" width="69.4981" x="504.3349" y="320.9547"/>
        <ellipse cx="513.8119" cy="333.65" fill="#ADD1B2" rx="6.9498" ry="6.9498" style="stroke: #A80036; stroke-width: 0.6318006318006318;"/>
        <path d="M515.5592,331.0438 Q515.6579,330.9056 515.7764,330.8365 Q515.8948,330.7674 516.033,330.7674 Q516.27,330.7674 516.418,330.9303 Q516.5661,331.0931 516.5661,331.4782 L516.5661,332.3962 Q516.5661,332.7812 516.418,332.9491 Q516.27,333.1169 516.033,333.1169 Q515.8159,333.1169 515.6875,332.9885 Q515.5592,332.8701 515.4901,332.5443 Q515.4605,332.3173 515.342,332.1988 Q515.1347,331.9619 514.7497,331.8237 Q514.3647,331.6855 513.9698,331.6855 Q513.4861,331.6855 513.0863,331.8928 Q512.6865,332.1001 512.3755,332.5739 Q512.0645,333.0478 512.0645,333.6993 L512.0645,334.3904 Q512.0645,335.1702 512.6272,335.6885 Q513.1899,336.2068 514.1969,336.2068 Q514.7892,336.2068 515.2038,336.0488 Q515.4506,335.9501 515.7171,335.6737 Q515.885,335.5059 515.9787,335.4565 Q516.0725,335.4072 516.2009,335.4072 Q516.4082,335.4072 516.5711,335.57 Q516.7339,335.7329 516.7339,335.9501 Q516.7339,336.1673 516.5168,336.424 Q516.2009,336.7892 515.6974,336.9965 Q515.0162,337.2828 514.1969,337.2828 Q513.2393,337.2828 512.4792,336.8879 Q511.8572,336.572 511.4229,335.8958 Q510.9885,335.2196 510.9885,334.4101 L510.9885,333.6796 Q510.9885,332.8405 511.3784,332.1149 Q511.7684,331.3893 512.4594,330.9994 Q513.1504,330.6094 513.9303,330.6094 Q514.3943,330.6094 514.804,330.7131 Q515.2137,330.8167 515.5592,331.0438 Z "/>
        <text fill="#000000" font-size="7.5816" font-style="italic" lengthAdjust="spacingAndGlyphs" textLength="51.8077" x="521.3935" y="331.6953">&lt;&lt;Controller&gt;&gt;</text>
        <text fill="#000000" font-size="7.5816" lengthAdjust="spacingAndGlyphs" textLength="21.4812" x="536.5567" y="341.2316">Player</text>
        <rect fill="#FEFECE" filter="url(#f1)" height="25.3905" style="stroke: #A80036; stroke-width: 0.9477009477009477;" width="100.4563" x="384.7666" y="396.7708"/>
        <ellipse cx="394.2436" cy="409.466" fill="#ADD1B2" rx="6.9498" ry="6.9498" style="stroke: #A80036; stroke-width: 0.6318006318006318;"/>
        <path d="M395.9909,406.8599 Q396.0896,406.7217 396.2081,406.6526 Q396.3266,406.5835 396.4648,406.5835 Q396.7017,406.5835 396.8498,406.7463 Q396.9979,406.9092 396.9979,407.2942 L396.9979,408.2123 Q396.9979,408.5973 396.8498,408.7651 Q396.7017,408.933 396.4648,408.933 Q396.2476,408.933 396.1193,408.8046 Q395.9909,408.6862 395.9218,408.3604 Q395.8922,408.1333 395.7737,408.0149 Q395.5664,407.7779 395.1814,407.6397 Q394.7964,407.5015 394.4015,407.5015 Q393.9178,407.5015 393.518,407.7088 Q393.1182,407.9162 392.8072,408.39 Q392.4963,408.8639 392.4963,409.5154 L392.4963,410.2064 Q392.4963,410.9863 393.059,411.5046 Q393.6217,412.0229 394.6286,412.0229 Q395.2209,412.0229 395.6355,411.8649 Q395.8823,411.7662 396.1489,411.4898 Q396.3167,411.322 396.4105,411.2726 Q396.5043,411.2232 396.6326,411.2232 Q396.8399,411.2232 397.0028,411.3861 Q397.1657,411.549 397.1657,411.7662 Q397.1657,411.9834 396.9485,412.24 Q396.6326,412.6053 396.1291,412.8126 Q395.448,413.0989 394.6286,413.0989 Q393.671,413.0989 392.9109,412.704 Q392.289,412.3881 391.8546,411.7119 Q391.4202,411.0357 391.4202,410.2262 L391.4202,409.4957 Q391.4202,408.6565 391.8102,407.931 Q392.2001,407.2054 392.8911,406.8154 Q393.5822,406.4255 394.3621,406.4255 Q394.826,406.4255 395.2357,406.5292 Q395.6454,406.6328 395.9909,406.8599 Z "/>
        <text fill="#000000" font-size="7.5816" font-style="italic" lengthAdjust="spacingAndGlyphs" textLength="82.7659" x="401.8252" y="407.5114">&lt;&lt;Information Holder&gt;&gt;</text>
        <text fill="#000000" font-size="7.5816" lengthAdjust="spacingAndGlyphs" textLength="34.1172" x="426.1495" y="417.0476">Character</text>
        <rect fill="#FEFECE" filter="url(#f1)" height="25.3905" style="stroke: #A80036; stroke-width: 0.9477009477009477;" width="68.8663" x="705.0895" y="169.3226"/>
        <ellipse cx="714.5665" cy="182.0178" fill="#ADD1B2" rx="6.9498" ry="6.9498" style="stroke: #A80036; stroke-width: 0.6318006318006318;"/>
        <path d="M716.3138,179.4116 Q716.4126,179.2734 716.531,179.2043 Q716.6495,179.1352 716.7877,179.1352 Q717.0246,179.1352 717.1727,179.2981 Q717.3208,179.461 717.3208,179.846 L717.3208,180.7641 Q717.3208,181.1491 717.1727,181.3169 Q717.0246,181.4847 716.7877,181.4847 Q716.5705,181.4847 716.4422,181.3564 Q716.3138,181.2379 716.2447,180.9122 Q716.2151,180.6851 716.0967,180.5666 Q715.8893,180.3297 715.5043,180.1915 Q715.1193,180.0533 714.7245,180.0533 Q714.2407,180.0533 713.8409,180.2606 Q713.4411,180.4679 713.1302,180.9418 Q712.8192,181.4156 712.8192,182.0672 L712.8192,182.7582 Q712.8192,183.5381 713.3819,184.0564 Q713.9446,184.5746 714.9515,184.5746 Q715.5438,184.5746 715.9585,184.4167 Q716.2052,184.318 716.4718,184.0415 Q716.6396,183.8737 716.7334,183.8244 Q716.8272,183.775 716.9555,183.775 Q717.1628,183.775 717.3257,183.9379 Q717.4886,184.1008 717.4886,184.318 Q717.4886,184.5351 717.2714,184.7918 Q716.9555,185.1571 716.452,185.3644 Q715.7709,185.6507 714.9515,185.6507 Q713.9939,185.6507 713.2338,185.2558 Q712.6119,184.9399 712.1775,184.2637 Q711.7432,183.5874 711.7432,182.7779 L711.7432,182.0474 Q711.7432,181.2083 712.1331,180.4827 Q712.523,179.7572 713.2141,179.3672 Q713.9051,178.9773 714.685,178.9773 Q715.149,178.9773 715.5586,179.0809 Q715.9683,179.1846 716.3138,179.4116 Z "/>
        <text fill="#000000" font-size="7.5816" font-style="italic" lengthAdjust="spacingAndGlyphs" textLength="51.1759" x="722.1481" y="180.0632">&lt;&lt;Structurer&gt;&gt;</text>
        <text fill="#000000" font-size="7.5816" lengthAdjust="spacingAndGlyphs" textLength="30.9582" x="732.2569" y="189.5994">Universe</text>
        <rect fill="#FEFECE" filter="url(#f1)" height="25.3905" style="stroke: #A80036; stroke-width: 0.9477009477009477;" width="68.8663" x="759.4244" y="245.1386"/>
        <ellipse cx="768.9014" cy="257.8339" fill="#ADD1B2" rx="6.9498" ry="6.9498" style="stroke: #A80036; stroke-width: 0.6318006318006318;"/>
        <path d="M770.6487,255.2277 Q770.7474,255.0895 770.8659,255.0204 Q770.9843,254.9513 771.1225,254.9513 Q771.3595,254.9513 771.5075,255.1142 Q771.6556,255.2771 771.6556,255.6621 L771.6556,256.5802 Q771.6556,256.9652 771.5075,257.133 Q771.3595,257.3008 771.1225,257.3008 Q770.9054,257.3008 770.777,257.1725 Q770.6487,257.054 770.5796,256.7282 Q770.55,256.5012 770.4315,256.3827 Q770.2242,256.1458 769.8392,256.0076 Q769.4542,255.8694 769.0593,255.8694 Q768.5756,255.8694 768.1758,256.0767 Q767.776,256.284 767.465,256.7579 Q767.154,257.2317 767.154,257.8832 L767.154,258.5743 Q767.154,259.3542 767.7167,259.8724 Q768.2794,260.3907 769.2864,260.3907 Q769.8787,260.3907 770.2933,260.2328 Q770.5401,260.134 770.8066,259.8576 Q770.9745,259.6898 771.0682,259.6404 Q771.162,259.5911 771.2904,259.5911 Q771.4977,259.5911 771.6606,259.754 Q771.8234,259.9169 771.8234,260.134 Q771.8234,260.3512 771.6063,260.6079 Q771.2904,260.9731 770.7869,261.1805 Q770.1057,261.4667 769.2864,261.4667 Q768.3288,261.4667 767.5687,261.0719 Q766.9467,260.756 766.5124,260.0797 Q766.078,259.4035 766.078,258.594 L766.078,257.8635 Q766.078,257.0244 766.4679,256.2988 Q766.8579,255.5732 767.5489,255.1833 Q768.24,254.7933 769.0198,254.7933 Q769.4838,254.7933 769.8935,254.897 Q770.3032,255.0007 770.6487,255.2277 Z "/>
        <text fill="#000000" font-size="7.5816" font-style="italic" lengthAdjust="spacingAndGlyphs" textLength="51.1759" x="776.483" y="255.8793">&lt;&lt;Structurer&gt;&gt;</text>
        <text fill="#000000" font-size="7.5816" lengthAdjust="spacingAndGlyphs" textLength="25.9038" x="789.119" y="265.4155">System</text>
        <rect fill="#FEFECE" filter="url(#f1)" height="25.3905" style="stroke: #A80036; stroke-width: 0.9477009477009477;" width="100.4563" x="788.4872" y="320.9547"/>
        <ellipse cx="797.9642" cy="333.65" fill="#ADD1B2" rx="6.9498" ry="6.9498" style="stroke: #A80036; stroke-width: 0.6318006318006318;"/>
        <path d="M799.7115,331.0438 Q799.8102,330.9056 799.9287,330.8365 Q800.0472,330.7674 800.1854,330.7674 Q800.4223,330.7674 800.5704,330.9303 Q800.7185,331.0931 800.7185,331.4782 L800.7185,332.3962 Q800.7185,332.7812 800.5704,332.9491 Q800.4223,333.1169 800.1854,333.1169 Q799.9682,333.1169 799.8399,332.9885 Q799.7115,332.8701 799.6424,332.5443 Q799.6128,332.3173 799.4943,332.1988 Q799.287,331.9619 798.902,331.8237 Q798.517,331.6855 798.1221,331.6855 Q797.6384,331.6855 797.2386,331.8928 Q796.8388,332.1001 796.5278,332.5739 Q796.2169,333.0478 796.2169,333.6993 L796.2169,334.3904 Q796.2169,335.1702 796.7796,335.6885 Q797.3423,336.2068 798.3492,336.2068 Q798.9415,336.2068 799.3561,336.0488 Q799.6029,335.9501 799.8695,335.6737 Q800.0373,335.5059 800.1311,335.4565 Q800.2249,335.4072 800.3532,335.4072 Q800.5605,335.4072 800.7234,335.57 Q800.8863,335.7329 800.8863,335.9501 Q800.8863,336.1673 800.6691,336.424 Q800.3532,336.7892 799.8497,336.9965 Q799.1686,337.2828 798.3492,337.2828 Q797.3916,337.2828 796.6315,336.8879 Q796.0096,336.572 795.5752,335.8958 Q795.1408,335.2196 795.1408,334.4101 L795.1408,333.6796 Q795.1408,332.8405 795.5308,332.1149 Q795.9207,331.3893 796.6117,330.9994 Q797.3028,330.6094 798.0827,330.6094 Q798.5466,330.6094 798.9563,330.7131 Q799.366,330.8167 799.7115,331.0438 Z "/>
        <text fill="#000000" font-size="7.5816" font-style="italic" lengthAdjust="spacingAndGlyphs" textLength="82.7659" x="805.5458" y="331.6953">&lt;&lt;Information Holder&gt;&gt;</text>
        <text fill="#000000" font-size="7.5816" lengthAdjust="spacingAndGlyphs" textLength="22.113" x="835.8722" y="341.2316">Planet</text>
        <rect fill="#FEFECE" filter="url(#f1)" height="25.3905" style="stroke: #A80036; stroke-width: 0.9477009477009477;" width="68.8663" x="483.3275" y="472.5869"/>
        <ellipse cx="492.8045" cy="485.2821" fill="#ADD1B2" rx="6.9498" ry="6.9498" style="stroke: #A80036; stroke-width: 0.6318006318006318;"/>
        <path d="M494.5518,482.6759 Q494.6505,482.5377 494.769,482.4686 Q494.8875,482.3995 495.0257,482.3995 Q495.2626,482.3995 495.4107,482.5624 Q495.5587,482.7253 495.5587,483.1103 L495.5587,484.0284 Q495.5587,484.4134 495.4107,484.5812 Q495.2626,484.749 495.0257,484.749 Q494.8085,484.749 494.6802,484.6207 Q494.5518,484.5022 494.4827,484.1765 Q494.4531,483.9494 494.3346,483.8309 Q494.1273,483.594 493.7423,483.4558 Q493.3573,483.3176 492.9624,483.3176 Q492.4787,483.3176 492.0789,483.5249 Q491.6791,483.7322 491.3681,484.2061 Q491.0572,484.6799 491.0572,485.3315 L491.0572,486.0225 Q491.0572,486.8024 491.6199,487.3207 Q492.1826,487.8389 493.1895,487.8389 Q493.7818,487.8389 494.1964,487.681 Q494.4432,487.5823 494.7098,487.3059 Q494.8776,487.138 494.9714,487.0887 Q495.0652,487.0393 495.1935,487.0393 Q495.4008,487.0393 495.5637,487.2022 Q495.7266,487.3651 495.7266,487.5823 Q495.7266,487.7994 495.5094,488.0561 Q495.1935,488.4214 494.69,488.6287 Q494.0089,488.915 493.1895,488.915 Q492.2319,488.915 491.4718,488.5201 Q490.8499,488.2042 490.4155,487.528 Q489.9811,486.8517 489.9811,486.0423 L489.9811,485.3117 Q489.9811,484.4726 490.3711,483.747 Q490.761,483.0215 491.452,482.6315 Q492.1431,482.2416 492.923,482.2416 Q493.3869,482.2416 493.7966,482.3452 Q494.2063,482.4489 494.5518,482.6759 Z "/>
        <text fill="#000000" font-size="7.5816" font-style="italic" lengthAdjust="spacingAndGlyphs" textLength="51.1759" x="500.3861" y="483.3275">&lt;&lt;Structurer&gt;&gt;</text>
        <text fill="#000000" font-size="7.5816" lengthAdjust="spacingAndGlyphs" textLength="15.795" x="518.0765" y="492.8637">Ship</text>
        <rect fill="#FEFECE" filter="url(#f1)" height="25.3905" style="stroke: #A80036; stroke-width: 0.9477009477009477;" width="100.4563" x="467.5325" y="548.4029"/>
        <ellipse cx="477.0095" cy="561.0982" fill="#ADD1B2" rx="6.9498" ry="6.9498" style="stroke: #A80036; stroke-width: 0.6318006318006318;"/>
        <path d="M478.7568,558.492 Q478.8555,558.3538 478.974,558.2847 Q479.0924,558.2156 479.2307,558.2156 Q479.4676,558.2156 479.6157,558.3785 Q479.7637,558.5414 479.7637,558.9264 L479.7637,559.8445 Q479.7637,560.2295 479.6157,560.3973 Q479.4676,560.5651 479.2307,560.5651 Q479.0135,560.5651 478.8851,560.4368 Q478.7568,560.3183 478.6877,559.9925 Q478.6581,559.7655 478.5396,559.647 Q478.3323,559.4101 477.9473,559.2719 Q477.5623,559.1337 477.1674,559.1337 Q476.6837,559.1337 476.2839,559.341 Q475.8841,559.5483 475.5731,560.0222 Q475.2622,560.496 475.2622,561.1476 L475.2622,561.8386 Q475.2622,562.6185 475.8249,563.1367 Q476.3875,563.655 477.3945,563.655 Q477.9868,563.655 478.4014,563.4971 Q478.6482,563.3983 478.9148,563.1219 Q479.0826,562.9541 479.1764,562.9047 Q479.2701,562.8554 479.3985,562.8554 Q479.6058,562.8554 479.7687,563.0183 Q479.9316,563.1812 479.9316,563.3983 Q479.9316,563.6155 479.7144,563.8722 Q479.3985,564.2375 478.895,564.4448 Q478.2138,564.731 477.3945,564.731 Q476.4369,564.731 475.6768,564.3362 Q475.0548,564.0203 474.6205,563.344 Q474.1861,562.6678 474.1861,561.8583 L474.1861,561.1278 Q474.1861,560.2887 474.5761,559.5631 Q474.966,558.8375 475.657,558.4476 Q476.3481,558.0577 477.1279,558.0577 Q477.5919,558.0577 478.0016,558.1613 Q478.4113,558.265 478.7568,558.492 Z "/>
        <text fill="#000000" font-size="7.5816" font-style="italic" lengthAdjust="spacingAndGlyphs" textLength="82.7659" x="484.5911" y="559.1436">&lt;&lt;Information Holder&gt;&gt;</text>
        <text fill="#000000" font-size="7.5816" lengthAdjust="spacingAndGlyphs" textLength="34.749" x="508.5995" y="568.6798">Upgrades</text>
        <rect fill="#FEFECE" filter="url(#f1)" height="25.3905" style="stroke: #A80036; stroke-width: 0.9477009477009477;" width="68.8663" x="688.6627" y="396.7708"/>
        <ellipse cx="698.1397" cy="409.466" fill="#ADD1B2" rx="6.9498" ry="6.9498" style="stroke: #A80036; stroke-width: 0.6318006318006318;"/>
        <path d="M699.887,406.8599 Q699.9857,406.7217 700.1042,406.6526 Q700.2227,406.5835 700.3609,406.5835 Q700.5978,406.5835 700.7459,406.7463 Q700.894,406.9092 700.894,407.2942 L700.894,408.2123 Q700.894,408.5973 700.7459,408.7651 Q700.5978,408.933 700.3609,408.933 Q700.1437,408.933 700.0154,408.8046 Q699.887,408.6862 699.8179,408.3604 Q699.7883,408.1333 699.6698,408.0149 Q699.4625,407.7779 699.0775,407.6397 Q698.6925,407.5015 698.2976,407.5015 Q697.8139,407.5015 697.4141,407.7088 Q697.0143,407.9162 696.7033,408.39 Q696.3924,408.8639 696.3924,409.5154 L696.3924,410.2064 Q696.3924,410.9863 696.9551,411.5046 Q697.5178,412.0229 698.5247,412.0229 Q699.117,412.0229 699.5316,411.8649 Q699.7784,411.7662 700.045,411.4898 Q700.2128,411.322 700.3066,411.2726 Q700.4004,411.2232 700.5287,411.2232 Q700.736,411.2232 700.8989,411.3861 Q701.0618,411.549 701.0618,411.7662 Q701.0618,411.9834 700.8446,412.24 Q700.5287,412.6053 700.0252,412.8126 Q699.3441,413.0989 698.5247,413.0989 Q697.5671,413.0989 696.807,412.704 Q696.1851,412.3881 695.7507,411.7119 Q695.3163,411.0357 695.3163,410.2262 L695.3163,409.4957 Q695.3163,408.6565 695.7063,407.931 Q696.0962,407.2054 696.7872,406.8154 Q697.4783,406.4255 698.2582,406.4255 Q698.7221,406.4255 699.1318,406.5292 Q699.5415,406.6328 699.887,406.8599 Z "/>
        <text fill="#000000" font-size="7.5816" font-style="italic" lengthAdjust="spacingAndGlyphs" textLength="51.1759" x="705.7213" y="407.5114">&lt;&lt;Structurer&gt;&gt;</text>
        <text fill="#000000" font-size="7.5816" lengthAdjust="spacingAndGlyphs" textLength="33.4854" x="714.5665" y="417.0476">Company</text>
        <rect fill="#FEFECE" filter="url(#f1)" height="25.3905" style="stroke: #A80036; stroke-width: 0.9477009477009477;" width="100.4563" x="653.2819" y="472.5869"/>
        <ellipse cx="662.7589" cy="485.2821" fill="#ADD1B2" rx="6.9498" ry="6.9498" style="stroke: #A80036; stroke-width: 0.6318006318006318;"/>
        <path d="M664.5062,482.6759 Q664.6049,482.5377 664.7234,482.4686 Q664.8418,482.3995 664.98,482.3995 Q665.217,482.3995 665.365,482.5624 Q665.5131,482.7253 665.5131,483.1103 L665.5131,484.0284 Q665.5131,484.4134 665.365,484.5812 Q665.217,484.749 664.98,484.749 Q664.7629,484.749 664.6345,484.6207 Q664.5062,484.5022 664.4371,484.1765 Q664.4075,483.9494 664.289,483.8309 Q664.0817,483.594 663.6967,483.4558 Q663.3117,483.3176 662.9168,483.3176 Q662.4331,483.3176 662.0333,483.5249 Q661.6335,483.7322 661.3225,484.2061 Q661.0115,484.6799 661.0115,485.3315 L661.0115,486.0225 Q661.0115,486.8024 661.5742,487.3207 Q662.1369,487.8389 663.1439,487.8389 Q663.7362,487.8389 664.1508,487.681 Q664.3976,487.5823 664.6641,487.3059 Q664.832,487.138 664.9257,487.0887 Q665.0195,487.0393 665.1479,487.0393 Q665.3552,487.0393 665.5181,487.2022 Q665.6809,487.3651 665.6809,487.5823 Q665.6809,487.7994 665.4638,488.0561 Q665.1479,488.4214 664.6444,488.6287 Q663.9632,488.915 663.1439,488.915 Q662.1863,488.915 661.4262,488.5201 Q660.8042,488.2042 660.3699,487.528 Q659.9355,486.8517 659.9355,486.0423 L659.9355,485.3117 Q659.9355,484.4726 660.3254,483.747 Q660.7154,483.0215 661.4064,482.6315 Q662.0974,482.2416 662.8773,482.2416 Q663.3413,482.2416 663.751,482.3452 Q664.1607,482.4489 664.5062,482.6759 Z "/>
        <text fill="#000000" font-size="7.5816" font-style="italic" lengthAdjust="spacingAndGlyphs" textLength="82.7659" x="670.3405" y="483.3275">&lt;&lt;Information Holder&gt;&gt;</text>
        <text fill="#000000" font-size="7.5816" lengthAdjust="spacingAndGlyphs" textLength="18.954" x="702.2464" y="492.8637">Stock</text>
        <rect fill="#FEFECE" filter="url(#f1)" height="25.3905" style="stroke: #A80036; stroke-width: 0.9477009477009477;" width="100.4563" x="775.8512" y="472.5869"/>
        <ellipse cx="785.3282" cy="485.2821" fill="#ADD1B2" rx="6.9498" ry="6.9498" style="stroke: #A80036; stroke-width: 0.6318006318006318;"/>
        <path d="M787.0755,482.6759 Q787.1742,482.5377 787.2927,482.4686 Q787.4112,482.3995 787.5494,482.3995 Q787.7863,482.3995 787.9344,482.5624 Q788.0824,482.7253 788.0824,483.1103 L788.0824,484.0284 Q788.0824,484.4134 787.9344,484.5812 Q787.7863,484.749 787.5494,484.749 Q787.3322,484.749 787.2038,484.6207 Q787.0755,484.5022 787.0064,484.1765 Q786.9768,483.9494 786.8583,483.8309 Q786.651,483.594 786.266,483.4558 Q785.881,483.3176 785.4861,483.3176 Q785.0024,483.3176 784.6026,483.5249 Q784.2028,483.7322 783.8918,484.2061 Q783.5809,484.6799 783.5809,485.3315 L783.5809,486.0225 Q783.5809,486.8024 784.1436,487.3207 Q784.7063,487.8389 785.7132,487.8389 Q786.3055,487.8389 786.7201,487.681 Q786.9669,487.5823 787.2335,487.3059 Q787.4013,487.138 787.4951,487.0887 Q787.5888,487.0393 787.7172,487.0393 Q787.9245,487.0393 788.0874,487.2022 Q788.2503,487.3651 788.2503,487.5823 Q788.2503,487.7994 788.0331,488.0561 Q787.7172,488.4214 787.2137,488.6287 Q786.5326,488.915 785.7132,488.915 Q784.7556,488.915 783.9955,488.5201 Q783.3736,488.2042 782.9392,487.528 Q782.5048,486.8517 782.5048,486.0423 L782.5048,485.3117 Q782.5048,484.4726 782.8948,483.747 Q783.2847,483.0215 783.9757,482.6315 Q784.6668,482.2416 785.4466,482.2416 Q785.9106,482.2416 786.3203,482.3452 Q786.73,482.4489 787.0755,482.6759 Z "/>
        <text fill="#000000" font-size="7.5816" font-style="italic" lengthAdjust="spacingAndGlyphs" textLength="82.7659" x="792.9098" y="483.3275">&lt;&lt;Information Holder&gt;&gt;</text>
        <text fill="#000000" font-size="7.5816" lengthAdjust="spacingAndGlyphs" textLength="18.954" x="824.8157" y="492.8637">Good</text>
        <rect fill="#FEFECE" filter="url(#f1)" height="25.3905" style="stroke: #A80036; stroke-width: 0.9477009477009477;" width="92.2429" x="506.8621" y="169.3226"/>
        <ellipse cx="516.3391" cy="182.0178" fill="#ADD1B2" rx="6.9498" ry="6.9498" style="stroke: #A80036; stroke-width: 0.6318006318006318;"/>
        <path d="M518.0864,179.4116 Q518.1851,179.2734 518.3036,179.2043 Q518.422,179.1352 518.5602,179.1352 Q518.7972,179.1352 518.9452,179.2981 Q519.0933,179.461 519.0933,179.846 L519.0933,180.7641 Q519.0933,181.1491 518.9452,181.3169 Q518.7972,181.4847 518.5602,181.4847 Q518.3431,181.4847 518.2147,181.3564 Q518.0864,181.2379 518.0173,180.9122 Q517.9877,180.6851 517.8692,180.5666 Q517.6619,180.3297 517.2769,180.1915 Q516.8919,180.0533 516.497,180.0533 Q516.0133,180.0533 515.6135,180.2606 Q515.2137,180.4679 514.9027,180.9418 Q514.5917,181.4156 514.5917,182.0672 L514.5917,182.7582 Q514.5917,183.5381 515.1544,184.0564 Q515.7171,184.5746 516.7241,184.5746 Q517.3164,184.5746 517.731,184.4167 Q517.9778,184.318 518.2443,184.0415 Q518.4122,183.8737 518.5059,183.8244 Q518.5997,183.775 518.7281,183.775 Q518.9354,183.775 519.0983,183.9379 Q519.2611,184.1008 519.2611,184.318 Q519.2611,184.5351 519.044,184.7918 Q518.7281,185.1571 518.2246,185.3644 Q517.5434,185.6507 516.7241,185.6507 Q515.7665,185.6507 515.0064,185.2558 Q514.3844,184.9399 513.9501,184.2637 Q513.5157,183.5874 513.5157,182.7779 L513.5157,182.0474 Q513.5157,181.2083 513.9056,180.4827 Q514.2956,179.7572 514.9866,179.3672 Q515.6777,178.9773 516.4575,178.9773 Q516.9215,178.9773 517.3312,179.0809 Q517.7409,179.1846 518.0864,179.4116 Z "/>
        <text fill="#000000" font-size="7.5816" font-style="italic" lengthAdjust="spacingAndGlyphs" textLength="74.5525" x="523.9207" y="180.0632">&lt;&lt;Service Provider&gt;&gt;</text>
        <text fill="#000000" font-size="7.5816" lengthAdjust="spacingAndGlyphs" textLength="41.067" x="540.6634" y="189.5994">Transaction</text>
        <rect fill="#FEFECE" filter="url(#f1)" height="25.3905" style="stroke: #A80036; stroke-width: 0.9477009477009477;" width="100.4563" x="248.9294" y="396.7708"/>
        <ellipse cx="258.4065" cy="409.466" fill="#ADD1B2" rx="6.9498" ry="6.9498" style="stroke: #A80036; stroke-width: 0.6318006318006318;"/>
        <path d="M260.1538,406.8599 Q260.2525,406.7217 260.371,406.6526 Q260.4894,406.5835 260.6276,406.5835 Q260.8646,406.5835 261.0126,406.7463 Q261.1607,406.9092 261.1607,407.2942 L261.1607,408.2123 Q261.1607,408.5973 261.0126,408.7651 Q260.8646,408.933 260.6276,408.933 Q260.4105,408.933 260.2821,408.8046 Q260.1538,408.6862 260.0847,408.3604 Q260.0551,408.1333 259.9366,408.0149 Q259.7293,407.7779 259.3443,407.6397 Q258.9593,407.5015 258.5644,407.5015 Q258.0807,407.5015 257.6809,407.7088 Q257.2811,407.9162 256.9701,408.39 Q256.6591,408.8639 256.6591,409.5154 L256.6591,410.2064 Q256.6591,410.9863 257.2218,411.5046 Q257.7845,412.0229 258.7915,412.0229 Q259.3838,412.0229 259.7984,411.8649 Q260.0452,411.7662 260.3117,411.4898 Q260.4796,411.322 260.5733,411.2726 Q260.6671,411.2232 260.7955,411.2232 Q261.0028,411.2232 261.1657,411.3861 Q261.3285,411.549 261.3285,411.7662 Q261.3285,411.9834 261.1114,412.24 Q260.7955,412.6053 260.292,412.8126 Q259.6108,413.0989 258.7915,413.0989 Q257.8339,413.0989 257.0738,412.704 Q256.4518,412.3881 256.0175,411.7119 Q255.5831,411.0357 255.5831,410.2262 L255.5831,409.4957 Q255.5831,408.6565 255.973,407.931 Q256.363,407.2054 257.054,406.8154 Q257.745,406.4255 258.5249,406.4255 Q258.9889,406.4255 259.3986,406.5292 Q259.8083,406.6328 260.1538,406.8599 Z "/>
        <text fill="#000000" font-size="7.5816" font-style="italic" lengthAdjust="spacingAndGlyphs" textLength="82.7659" x="265.9881" y="407.5114">&lt;&lt;Information Holder&gt;&gt;</text>
        <text fill="#000000" font-size="7.5816" lengthAdjust="spacingAndGlyphs" textLength="21.4812" x="296.6304" y="417.0476">Police</text>
        <rect fill="#FEFECE" filter="url(#f1)" height="25.3905" style="stroke: #A80036; stroke-width: 0.9477009477009477;" width="100.4563" x="3.7908" y="396.7708"/>
        <ellipse cx="13.2678" cy="409.466" fill="#ADD1B2" rx="6.9498" ry="6.9498" style="stroke: #A80036; stroke-width: 0.6318006318006318;"/>
        <path d="M15.0151,406.8599 Q15.1139,406.7217 15.2323,406.6526 Q15.3508,406.5835 15.489,406.5835 Q15.7259,406.5835 15.874,406.7463 Q16.0221,406.9092 16.0221,407.2942 L16.0221,408.2123 Q16.0221,408.5973 15.874,408.7651 Q15.7259,408.933 15.489,408.933 Q15.2718,408.933 15.1435,408.8046 Q15.0151,408.6862 14.946,408.3604 Q14.9164,408.1333 14.798,408.0149 Q14.5906,407.7779 14.2056,407.6397 Q13.8206,407.5015 13.4258,407.5015 Q12.942,407.5015 12.5422,407.7088 Q12.1424,407.9162 11.8315,408.39 Q11.5205,408.8639 11.5205,409.5154 L11.5205,410.2064 Q11.5205,410.9863 12.0832,411.5046 Q12.6459,412.0229 13.6528,412.0229 Q14.2451,412.0229 14.6597,411.8649 Q14.9065,411.7662 15.1731,411.4898 Q15.3409,411.322 15.4347,411.2726 Q15.5285,411.2232 15.6568,411.2232 Q15.8641,411.2232 16.027,411.3861 Q16.1899,411.549 16.1899,411.7662 Q16.1899,411.9834 15.9727,412.24 Q15.6568,412.6053 15.1533,412.8126 Q14.4722,413.0989 13.6528,413.0989 Q12.6952,413.0989 11.9351,412.704 Q11.3132,412.3881 10.8788,411.7119 Q10.4445,411.0357 10.4445,410.2262 L10.4445,409.4957 Q10.4445,408.6565 10.8344,407.931 Q11.2243,407.2054 11.9154,406.8154 Q12.6064,406.4255 13.3863,406.4255 Q13.8503,406.4255 14.2599,406.5292 Q14.6696,406.6328 15.0151,406.8599 Z "/>
        <text fill="#000000" font-size="7.5816" font-style="italic" lengthAdjust="spacingAndGlyphs" textLength="82.7659" x="20.8494" y="407.5114">&lt;&lt;Information Holder&gt;&gt;</text>
        <text fill="#000000" font-size="7.5816" lengthAdjust="spacingAndGlyphs" textLength="20.2176" x="52.1236" y="417.0476">Pirate</text>
        <rect fill="#FEFECE" filter="url(#f1)" height="25.3905" style="stroke: #A80036; stroke-width: 0.9477009477009477;" width="100.4563" x="126.3601" y="396.7708"/>
        <ellipse cx="135.8371" cy="409.466" fill="#ADD1B2" rx="6.9498" ry="6.9498" style="stroke: #A80036; stroke-width: 0.6318006318006318;"/>
        <path d="M137.5845,406.8599 Q137.6832,406.7217 137.8016,406.6526 Q137.9201,406.5835 138.0583,406.5835 Q138.2952,406.5835 138.4433,406.7463 Q138.5914,406.9092 138.5914,407.2942 L138.5914,408.2123 Q138.5914,408.5973 138.4433,408.7651 Q138.2952,408.933 138.0583,408.933 Q137.8411,408.933 137.7128,408.8046 Q137.5845,408.6862 137.5154,408.3604 Q137.4857,408.1333 137.3673,408.0149 Q137.16,407.7779 136.775,407.6397 Q136.39,407.5015 135.9951,407.5015 Q135.5114,407.5015 135.1116,407.7088 Q134.7117,407.9162 134.4008,408.39 Q134.0898,408.8639 134.0898,409.5154 L134.0898,410.2064 Q134.0898,410.9863 134.6525,411.5046 Q135.2152,412.0229 136.2221,412.0229 Q136.8145,412.0229 137.2291,411.8649 Q137.4759,411.7662 137.7424,411.4898 Q137.9102,411.322 138.004,411.2726 Q138.0978,411.2232 138.2261,411.2232 Q138.4334,411.2232 138.5963,411.3861 Q138.7592,411.549 138.7592,411.7662 Q138.7592,411.9834 138.542,412.24 Q138.2261,412.6053 137.7227,412.8126 Q137.0415,413.0989 136.2221,413.0989 Q135.2646,413.0989 134.5044,412.704 Q133.8825,412.3881 133.4481,411.7119 Q133.0138,411.0357 133.0138,410.2262 L133.0138,409.4957 Q133.0138,408.6565 133.4037,407.931 Q133.7937,407.2054 134.4847,406.8154 Q135.1757,406.4255 135.9556,406.4255 Q136.4196,406.4255 136.8293,406.5292 Q137.2389,406.6328 137.5845,406.8599 Z "/>
        <text fill="#000000" font-size="7.5816" font-style="italic" lengthAdjust="spacingAndGlyphs" textLength="82.7659" x="143.4187" y="407.5114">&lt;&lt;Information Holder&gt;&gt;</text>
        <text fill="#000000" font-size="7.5816" lengthAdjust="spacingAndGlyphs" textLength="22.7448" x="173.4293" y="417.0476">Trader</text>
        <rect fill="#FEFECE" filter="url(#f1)" height="25.3905" style="stroke: #A80036; stroke-width: 0.9477009477009477;" width="76.4479" x="285.5739" y="125.0965"/>
        <ellipse cx="295.0509" cy="137.7918" fill="#ADD1B2" rx="6.9498" ry="6.9498" style="stroke: #A80036; stroke-width: 0.6318006318006318;"/>
        <path d="M296.7982,135.1856 Q296.8969,135.0474 297.0154,134.9783 Q297.1339,134.9092 297.2721,134.9092 Q297.509,134.9092 297.6571,135.0721 Q297.8052,135.235 297.8052,135.62 L297.8052,136.538 Q297.8052,136.923 297.6571,137.0909 Q297.509,137.2587 297.2721,137.2587 Q297.0549,137.2587 296.9266,137.1304 Q296.7982,137.0119 296.7291,136.6861 Q296.6995,136.4591 296.581,136.3406 Q296.3737,136.1037 295.9887,135.9655 Q295.6037,135.8273 295.2088,135.8273 Q294.7251,135.8273 294.3253,136.0346 Q293.9255,136.2419 293.6145,136.7157 Q293.3036,137.1896 293.3036,137.8411 L293.3036,138.5322 Q293.3036,139.312 293.8663,139.8303 Q294.429,140.3486 295.4359,140.3486 Q296.0282,140.3486 296.4428,140.1906 Q296.6896,140.0919 296.9562,139.8155 Q297.124,139.6477 297.2178,139.5983 Q297.3116,139.549 297.4399,139.549 Q297.6472,139.549 297.8101,139.7119 Q297.973,139.8747 297.973,140.0919 Q297.973,140.3091 297.7558,140.5658 Q297.4399,140.931 296.9364,141.1383 Q296.2553,141.4246 295.4359,141.4246 Q294.4783,141.4246 293.7182,141.0297 Q293.0963,140.7138 292.6619,140.0376 Q292.2275,139.3614 292.2275,138.5519 L292.2275,137.8214 Q292.2275,136.9823 292.6175,136.2567 Q293.0074,135.5311 293.6984,135.1412 Q294.3895,134.7512 295.1694,134.7512 Q295.6333,134.7512 296.043,134.8549 Q296.4527,134.9585 296.7982,135.1856 Z "/>
        <text fill="#000000" font-size="7.5816" font-style="italic" lengthAdjust="spacingAndGlyphs" textLength="58.7575" x="302.6325" y="135.8371">&lt;&lt;Coordinator&gt;&gt;</text>
        <text fill="#000000" font-size="7.5816" lengthAdjust="spacingAndGlyphs" textLength="32.8536" x="315.5844" y="145.3734">Approach</text>
        <rect fill="#FEFECE" filter="url(#f1)" height="25.3905" style="stroke: #A80036; stroke-width: 0.9477009477009477;" width="92.2429" x="239.6104" y="320.9547"/>
        <ellipse cx="249.0874" cy="333.65" fill="#ADD1B2" rx="6.9498" ry="6.9498" style="stroke: #A80036; stroke-width: 0.6318006318006318;"/>
        <path d="M250.8347,331.0438 Q250.9334,330.9056 251.0519,330.8365 Q251.1704,330.7674 251.3086,330.7674 Q251.5455,330.7674 251.6936,330.9303 Q251.8417,331.0931 251.8417,331.4782 L251.8417,332.3962 Q251.8417,332.7812 251.6936,332.9491 Q251.5455,333.1169 251.3086,333.1169 Q251.0914,333.1169 250.9631,332.9885 Q250.8347,332.8701 250.7656,332.5443 Q250.736,332.3173 250.6175,332.1988 Q250.4102,331.9619 250.0252,331.8237 Q249.6402,331.6855 249.2453,331.6855 Q248.7616,331.6855 248.3618,331.8928 Q247.962,332.1001 247.651,332.5739 Q247.3401,333.0478 247.3401,333.6993 L247.3401,334.3904 Q247.3401,335.1702 247.9028,335.6885 Q248.4655,336.2068 249.4724,336.2068 Q250.0647,336.2068 250.4793,336.0488 Q250.7261,335.9501 250.9927,335.6737 Q251.1605,335.5059 251.2543,335.4565 Q251.3481,335.4072 251.4764,335.4072 Q251.6837,335.4072 251.8466,335.57 Q252.0095,335.7329 252.0095,335.9501 Q252.0095,336.1673 251.7923,336.424 Q251.4764,336.7892 250.9729,336.9965 Q250.2918,337.2828 249.4724,337.2828 Q248.5148,337.2828 247.7547,336.8879 Q247.1328,336.572 246.6984,335.8958 Q246.264,335.2196 246.264,334.4101 L246.264,333.6796 Q246.264,332.8405 246.654,332.1149 Q247.0439,331.3893 247.735,330.9994 Q248.426,330.6094 249.2059,330.6094 Q249.6698,330.6094 250.0795,330.7131 Q250.4892,330.8167 250.8347,331.0438 Z "/>
        <text fill="#000000" font-size="7.5816" font-style="italic" lengthAdjust="spacingAndGlyphs" textLength="74.5525" x="256.669" y="331.6953">&lt;&lt;Service Provider&gt;&gt;</text>
        <text fill="#000000" font-size="7.5816" lengthAdjust="spacingAndGlyphs" textLength="35.3808" x="276.2548" y="341.2316">Encounter</text>
        <rect fill="#FEFECE" filter="url(#f1)" height="25.3905" style="stroke: #A80036; stroke-width: 0.9477009477009477;" width="68.2345" x="475.272" y="245.1386"/>
        <ellipse cx="484.749" cy="257.8339" fill="#ADD1B2" rx="6.9498" ry="6.9498" style="stroke: #A80036; stroke-width: 0.6318006318006318;"/>
        <path d="M486.4964,255.2277 Q486.5951,255.0895 486.7135,255.0204 Q486.832,254.9513 486.9702,254.9513 Q487.2071,254.9513 487.3552,255.1142 Q487.5033,255.2771 487.5033,255.6621 L487.5033,256.5802 Q487.5033,256.9652 487.3552,257.133 Q487.2071,257.3008 486.9702,257.3008 Q486.753,257.3008 486.6247,257.1725 Q486.4964,257.054 486.4273,256.7282 Q486.3976,256.5012 486.2792,256.3827 Q486.0719,256.1458 485.6869,256.0076 Q485.3019,255.8694 484.907,255.8694 Q484.4233,255.8694 484.0235,256.0767 Q483.6236,256.284 483.3127,256.7579 Q483.0017,257.2317 483.0017,257.8832 L483.0017,258.5743 Q483.0017,259.3542 483.5644,259.8724 Q484.1271,260.3907 485.134,260.3907 Q485.7264,260.3907 486.141,260.2328 Q486.3878,260.134 486.6543,259.8576 Q486.8221,259.6898 486.9159,259.6404 Q487.0097,259.5911 487.138,259.5911 Q487.3453,259.5911 487.5082,259.754 Q487.6711,259.9169 487.6711,260.134 Q487.6711,260.3512 487.4539,260.6079 Q487.138,260.9731 486.6346,261.1805 Q485.9534,261.4667 485.134,261.4667 Q484.1765,261.4667 483.4163,261.0719 Q482.7944,260.756 482.36,260.0797 Q481.9257,259.4035 481.9257,258.594 L481.9257,257.8635 Q481.9257,257.0244 482.3156,256.2988 Q482.7056,255.5732 483.3966,255.1833 Q484.0876,254.7933 484.8675,254.7933 Q485.3315,254.7933 485.7412,254.897 Q486.1508,255.0007 486.4964,255.2277 Z "/>
        <text fill="#000000" font-size="7.5816" font-style="italic" lengthAdjust="spacingAndGlyphs" textLength="50.5441" x="492.3306" y="255.8793">&lt;&lt;Interfacer&gt;&gt;</text>
        <text fill="#000000" font-size="7.5816" lengthAdjust="spacingAndGlyphs" textLength="17.6904" x="508.7575" y="265.4155">Bank</text>
        <rect fill="#FEFECE" filter="url(#f1)" height="25.3905" style="stroke: #A80036; stroke-width: 0.9477009477009477;" width="68.2345" x="655.967" y="245.1386"/>
        <ellipse cx="665.444" cy="257.8339" fill="#ADD1B2" rx="6.9498" ry="6.9498" style="stroke: #A80036; stroke-width: 0.6318006318006318;"/>
        <path d="M667.1913,255.2277 Q667.2901,255.0895 667.4085,255.0204 Q667.527,254.9513 667.6652,254.9513 Q667.9021,254.9513 668.0502,255.1142 Q668.1983,255.2771 668.1983,255.6621 L668.1983,256.5802 Q668.1983,256.9652 668.0502,257.133 Q667.9021,257.3008 667.6652,257.3008 Q667.448,257.3008 667.3197,257.1725 Q667.1913,257.054 667.1222,256.7282 Q667.0926,256.5012 666.9742,256.3827 Q666.7668,256.1458 666.3818,256.0076 Q665.9968,255.8694 665.602,255.8694 Q665.1182,255.8694 664.7184,256.0767 Q664.3186,256.284 664.0077,256.7579 Q663.6967,257.2317 663.6967,257.8832 L663.6967,258.5743 Q663.6967,259.3542 664.2594,259.8724 Q664.8221,260.3907 665.829,260.3907 Q666.4213,260.3907 666.836,260.2328 Q667.0827,260.134 667.3493,259.8576 Q667.5171,259.6898 667.6109,259.6404 Q667.7047,259.5911 667.833,259.5911 Q668.0403,259.5911 668.2032,259.754 Q668.3661,259.9169 668.3661,260.134 Q668.3661,260.3512 668.1489,260.6079 Q667.833,260.9731 667.3295,261.1805 Q666.6484,261.4667 665.829,261.4667 Q664.8714,261.4667 664.1113,261.0719 Q663.4894,260.756 663.055,260.0797 Q662.6207,259.4035 662.6207,258.594 L662.6207,257.8635 Q662.6207,257.0244 663.0106,256.2988 Q663.4005,255.5732 664.0916,255.1833 Q664.7826,254.7933 665.5625,254.7933 Q666.0265,254.7933 666.4361,254.897 Q666.8458,255.0007 667.1913,255.2277 Z "/>
        <text fill="#000000" font-size="7.5816" font-style="italic" lengthAdjust="spacingAndGlyphs" textLength="50.5441" x="673.0256" y="255.8793">&lt;&lt;Interfacer&gt;&gt;</text>
        <text fill="#000000" font-size="7.5816" lengthAdjust="spacingAndGlyphs" textLength="22.7448" x="686.9252" y="265.4155">Market</text>
        <rect fill="#FEFECE" filter="url(#f1)" height="25.3905" style="stroke: #A80036; stroke-width: 0.9477009477009477;" width="68.2345" x="565.6195" y="245.1386"/>
        <ellipse cx="575.0965" cy="257.8339" fill="#ADD1B2" rx="6.9498" ry="6.9498" style="stroke: #A80036; stroke-width: 0.6318006318006318;"/>
        <path d="M576.8438,255.2277 Q576.9426,255.0895 577.061,255.0204 Q577.1795,254.9513 577.3177,254.9513 Q577.5546,254.9513 577.7027,255.1142 Q577.8508,255.2771 577.8508,255.6621 L577.8508,256.5802 Q577.8508,256.9652 577.7027,257.133 Q577.5546,257.3008 577.3177,257.3008 Q577.1005,257.3008 576.9722,257.1725 Q576.8438,257.054 576.7747,256.7282 Q576.7451,256.5012 576.6267,256.3827 Q576.4194,256.1458 576.0344,256.0076 Q575.6494,255.8694 575.2545,255.8694 Q574.7708,255.8694 574.3709,256.0767 Q573.9711,256.284 573.6602,256.7579 Q573.3492,257.2317 573.3492,257.8832 L573.3492,258.5743 Q573.3492,259.3542 573.9119,259.8724 Q574.4746,260.3907 575.4815,260.3907 Q576.0738,260.3907 576.4885,260.2328 Q576.7353,260.134 577.0018,259.8576 Q577.1696,259.6898 577.2634,259.6404 Q577.3572,259.5911 577.4855,259.5911 Q577.6928,259.5911 577.8557,259.754 Q578.0186,259.9169 578.0186,260.134 Q578.0186,260.3512 577.8014,260.6079 Q577.4855,260.9731 576.9821,261.1805 Q576.3009,261.4667 575.4815,261.4667 Q574.524,261.4667 573.7638,261.0719 Q573.1419,260.756 572.7075,260.0797 Q572.2732,259.4035 572.2732,258.594 L572.2732,257.8635 Q572.2732,257.0244 572.6631,256.2988 Q573.053,255.5732 573.7441,255.1833 Q574.4351,254.7933 575.215,254.7933 Q575.679,254.7933 576.0886,254.897 Q576.4983,255.0007 576.8438,255.2277 Z "/>
        <text fill="#000000" font-size="7.5816" font-style="italic" lengthAdjust="spacingAndGlyphs" textLength="50.5441" x="582.6781" y="255.8793">&lt;&lt;Interfacer&gt;&gt;</text>
        <text fill="#000000" font-size="7.5816" lengthAdjust="spacingAndGlyphs" textLength="30.3264" x="592.7869" y="265.4155">Shipyard</text>
        <path d="M389.9789,30.4604 C389.9789,45.2148 389.9789,70.8716 389.9789,92.8747 C389.9789,92.8747 389.9789,92.8747 389.9789,334.2225 C389.9789,357.7836 406.6313,380.3099 419.6439,394.3156 " fill="none" style="stroke: #A80036; stroke-width: 0.6318006318006318;"/>
        <polygon fill="#A80036" points="421.8621,396.6596,419.7888,390.7927,419.6906,394.3653,416.1179,394.2671,421.8621,396.6596" style="stroke: #A80036; stroke-width: 0.6318006318006318;"/>
        <text fill="#000000" font-size="8.2134" lengthAdjust="spacingAndGlyphs" textLength="27.1674" x="390.6107" y="222.7097">creates</text>
        <path d="M413.794,30.3833 C440.2532,43.7832 482.8713,65.3667 510.4538,79.3352 " fill="none" style="stroke: #A80036; stroke-width: 0.6318006318006318;"/>
        <polygon fill="#A80036" points="513.4075,80.8313,509.477,76.0073,510.5895,79.4038,507.193,80.5162,513.4075,80.8313" style="stroke: #A80036; stroke-width: 0.6318006318006318;"/>
        <text fill="#000000" font-size="8.2134" lengthAdjust="spacingAndGlyphs" textLength="36.0126" x="473.3766" y="58.4416">alternates</text>
        <path d="M357.6876,30.4364 C349.2708,35.094 341.0548,41.2749 335.6441,49.2804 C320.9604,71.0043 320.5055,102.7163 321.843,121.4953 " fill="none" style="stroke: #A80036; stroke-width: 0.6318006318006318;"/>
        <polygon fill="#A80036" points="322.1109,124.8463,324.1768,118.9768,321.8591,121.6974,319.1385,119.3797,322.1109,124.8463" style="stroke: #A80036; stroke-width: 0.6318006318006318;"/>
        <text fill="#000000" font-size="8.2134" lengthAdjust="spacingAndGlyphs" textLength="36.0126" x="336.2759" y="58.4416">alternates</text>
        <path d="M522.103,346.3664 C503.571,359.6197 473.9459,380.8058 454.4397,394.756 " fill="none" style="stroke: #A80036; stroke-width: 0.6318006318006318;"/>
        <polygon fill="#A80036" points="451.6376,396.7594,457.7329,395.5074,454.2072,394.9218,454.7927,391.3961,451.6376,396.7594" style="stroke: #A80036; stroke-width: 0.6318006318006318;"/>
        <text fill="#000000" font-size="8.2134" lengthAdjust="spacingAndGlyphs" textLength="29.0628" x="494.226" y="374.3419">controls</text>
        <path d="M448.0541,422.0997 C457.6821,430.8703 471.0497,443.0167 482.8536,453.6329 C488.9511,459.1169 495.676,465.119 501.5726,470.3661 " fill="none" style="stroke: #A80036; stroke-width: 0.6318006318006318;"/>
        <polygon fill="#A80036" points="504.0442,472.5648,501.4753,466.8973,501.6839,470.4652,498.116,470.6738,504.0442,472.5648" style="stroke: #A80036; stroke-width: 0.6318006318006318;"/>
        <text fill="#000000" font-size="8.2134" lengthAdjust="spacingAndGlyphs" textLength="36.0126" x="483.4854" y="450.158">access to</text>
        <path d="M565.0882,106.1697 C602.6721,122.3785 669.3485,151.133 708.4317,167.9863 " fill="none" style="stroke: #A80036; stroke-width: 0.6318006318006318;"/>
        <polygon fill="#A80036" points="711.4265,169.279,707.1991,164.7129,708.5239,168.0323,705.2044,169.357,711.4265,169.279" style="stroke: #A80036; stroke-width: 0.6318006318006318;"/>
        <text fill="#000000" font-size="8.2134" lengthAdjust="spacingAndGlyphs" textLength="29.0628" x="663.5486" y="140.5756">updates</text>
        <path d="M748.2162,194.7342 C757.6869,207.7316 772.7238,228.3587 782.8894,242.3075 " fill="none" style="stroke: #A80036; stroke-width: 0.6318006318006318;"/>
        <polygon fill="#A80036" points="784.8543,245.0041,783.5483,238.9202,782.994,242.4509,779.4633,241.8966,784.8543,245.0041" style="stroke: #A80036; stroke-width: 0.6318006318006318;"/>
        <text fill="#000000" font-size="8.2134" lengthAdjust="spacingAndGlyphs" textLength="30.9582" x="770.9547" y="222.7097">contains</text>
        <path d="M801.0095,270.5503 C808.7933,283.4934 821.1323,304.0029 829.529,317.9486 " fill="none" style="stroke: #A80036; stroke-width: 0.6318006318006318;"/>
        <polygon fill="#A80036" points="831.2538,320.8201,830.4877,314.645,829.6252,318.1133,826.1568,317.2507,831.2538,320.8201" style="stroke: #A80036; stroke-width: 0.6318006318006318;"/>
        <text fill="#000000" font-size="8.2134" lengthAdjust="spacingAndGlyphs" textLength="30.9582" x="819.6034" y="298.5258">contains</text>
        <path d="M819.7234,346.3664 C799.0888,359.674 766.0456,380.9796 744.4128,394.9272 " fill="none" style="stroke: #A80036; stroke-width: 0.6318006318006318;"/>
        <polygon fill="#A80036" points="741.5697,396.7594,747.7197,395.8123,744.2275,395.052,744.9878,391.5598,741.5697,396.7594" style="stroke: #A80036; stroke-width: 0.6318006318006318;"/>
        <text fill="#000000" font-size="8.2134" lengthAdjust="spacingAndGlyphs" textLength="30.9582" x="788.6451" y="374.3419">contains</text>
        <path d="M719.7473,422.1824 C716.3735,435.0175 711.0474,455.292 707.3893,469.2295 " fill="none" style="stroke: #A80036; stroke-width: 0.6318006318006318;"/>
        <polygon fill="#A80036" points="706.5426,472.4523,710.4344,467.597,707.347,469.3974,705.5466,466.31,706.5426,472.4523" style="stroke: #A80036; stroke-width: 0.6318006318006318;"/>
        <text fill="#000000" font-size="8.2134" lengthAdjust="spacingAndGlyphs" textLength="18.954" x="715.3563" y="450.158">owns</text>
        <path d="M739.7122,422.1824 C758.0218,435.4357 787.2868,456.6219 806.5567,470.5721 " fill="none" style="stroke: #A80036; stroke-width: 0.6318006318006318;"/>
        <polygon fill="#A80036" points="809.324,472.5755,806.2095,467.1885,806.7684,470.7185,803.2384,471.2774,809.324,472.5755" style="stroke: #A80036; stroke-width: 0.6318006318006318;"/>
        <text fill="#000000" font-size="8.2134" lengthAdjust="spacingAndGlyphs" textLength="18.954" x="781.6953" y="450.158">owns</text>
        <path d="M689.7178,422.0997 C652.5111,435.6082 592.4028,457.4331 553.9634,471.3896 " fill="none" style="stroke: #A80036; stroke-width: 0.6318006318006318;"/>
        <polygon fill="#A80036" points="550.7741,472.5477,556.9815,472.9818,553.7433,471.4692,555.2559,468.2311,550.7741,472.5477" style="stroke: #A80036; stroke-width: 0.6318006318006318;"/>
        <text fill="#000000" font-size="8.2134" lengthAdjust="spacingAndGlyphs" textLength="18.954" x="633.2222" y="450.158">owns</text>
        <path d="M526.6867,194.6426 C506.5645,205.1893 479.6694,222.3843 463.8996,245.1386 C431.7871,291.473 431.7631,362.3977 433.5523,393.3888 " fill="none" style="stroke: #A80036; stroke-width: 0.6318006318006318;"/>
        <polygon fill="#A80036" points="433.7532,396.6141,435.9214,390.7815,433.5565,393.4612,430.8768,391.0964,433.7532,396.6141" style="stroke: #A80036; stroke-width: 0.6318006318006318;"/>
        <text fill="#000000" font-size="8.2134" lengthAdjust="spacingAndGlyphs" textLength="54.9667" x="444.3138" y="298.5258">exchanges info</text>
        <path d="M598.9565,194.6521 C613.3072,199.4298 628.8337,205.6909 642.0674,213.5486 C655.2783,221.3918 668.047,233.257 677.0881,242.6304 " fill="none" style="stroke: #A80036; stroke-width: 0.6318006318006318;"/>
        <polygon fill="#A80036" points="679.3057,244.9554,677.2076,239.0973,677.1245,242.6703,673.5515,242.5872,679.3057,244.9554" style="stroke: #A80036; stroke-width: 0.6318006318006318;"/>
        <text fill="#000000" font-size="8.2134" lengthAdjust="spacingAndGlyphs" textLength="54.9667" x="660.3896" y="222.7097">exchanges info</text>
        <path d="M560.6296,194.6338 C564.2567,200.3585 568.6458,207.3007 572.5693,213.5486 C578.5765,223.116 585.2913,233.8894 590.5422,242.3328 " fill="none" style="stroke: #A80036; stroke-width: 0.6318006318006318;"/>
        <polygon fill="#A80036" points="592.2632,245.102,591.4067,238.9387,590.5951,242.4193,587.1145,241.6077,592.2632,245.102" style="stroke: #A80036; stroke-width: 0.6318006318006318;"/>
        <text fill="#000000" font-size="8.2134" lengthAdjust="spacingAndGlyphs" textLength="54.9667" x="580.7827" y="222.7097">exchanges info</text>
        <path d="M531.1074,194.6496 C524.2126,199.5808 517.3221,205.9354 513.1801,213.5486 C508.5325,222.0912 507.5855,232.9904 507.7996,241.7541 " fill="none" style="stroke: #A80036; stroke-width: 0.6318006318006318;"/>
        <polygon fill="#A80036" points="507.9399,245.1203,510.2277,239.3336,507.8081,241.9641,505.1777,239.5445,507.9399,245.1203" style="stroke: #A80036; stroke-width: 0.6318006318006318;"/>
        <text fill="#000000" font-size="8.2134" lengthAdjust="spacingAndGlyphs" textLength="54.9667" x="513.8119" y="222.7097">exchagnes info</text>
        <path d="M517.6027,497.9985 C517.6027,510.8333 517.6027,531.1083 517.6027,545.0456 " fill="none" style="stroke: #A80036; stroke-width: 0.6318006318006318;"/>
        <polygon fill="#A80036" points="517.6027,548.2683,520.1299,542.5821,517.6027,545.1093,515.0755,542.5821,517.6027,548.2683" style="stroke: #A80036; stroke-width: 0.6318006318006318;"/>
        <text fill="#000000" font-size="8.2134" lengthAdjust="spacingAndGlyphs" textLength="25.9038" x="518.2345" y="525.974">applies</text>
        <path d="M321.2687,150.5372 C314.6601,184.4599 296.0435,280.0254 288.7329,317.5544 " fill="none" style="stroke: #A80036; stroke-width: 0.6318006318006318;"/>
        <polygon fill="#A80036" points="288.1024,320.7911,291.6697,315.6927,288.7061,317.6903,286.7084,314.7267,288.1024,320.7911" style="stroke: #A80036; stroke-width: 0.6318006318006318;"/>
        <text fill="#000000" font-size="8.2134" lengthAdjust="spacingAndGlyphs" textLength="28.431" x="309.7403" y="222.7097">initiates</text>
        <path d="M298.5271,346.3708 C309.25,356.0064 325.3331,369.2357 341.3303,377.8168 C354.8363,385.0616 370.3464,391.0277 384.802,395.7233 " fill="none" style="stroke: #A80036; stroke-width: 0.6318006318006318;"/>
        <polygon fill="#A80036" points="387.8694,396.7057,383.2255,392.5639,384.861,395.7418,381.6832,397.3772,387.8694,396.7057" style="stroke: #A80036; stroke-width: 0.6318006318006318;"/>
        <text fill="#000000" font-size="8.2134" lengthAdjust="spacingAndGlyphs" textLength="30.3264" x="341.9621" y="374.3419">includes</text>
        <path d="M283.4681,346.4106 C282.2449,355.2432 281.4249,367.411 283.8364,377.8168 C285.0899,383.2244 287.4251,388.7773 289.8941,393.6604 " fill="none" style="stroke: #A80036; stroke-width: 0.6318006318006318;"/>
        <polygon fill="#A80036" points="291.4402,396.6072,291.0369,390.3977,289.9728,393.8096,286.5609,392.7455,291.4402,396.6072" style="stroke: #A80036; stroke-width: 0.6318006318006318;"/>
        <text fill="#000000" font-size="8.2134" lengthAdjust="spacingAndGlyphs" textLength="30.3264" x="284.4682" y="374.3419">includes</text>
        <path d="M247.3379,346.2773 C229.2621,351.9736 207.4132,358.8899 187.8027,365.1808 C156.0762,375.3584 120.1805,387.0512 93.54,395.7631 " fill="none" style="stroke: #A80036; stroke-width: 0.6318006318006318;"/>
        <polygon fill="#A80036" points="90.5023,396.7569,96.6923,397.3915,93.5048,395.775,95.1213,392.5875,90.5023,396.7569" style="stroke: #A80036; stroke-width: 0.6318006318006318;"/>
        <text fill="#000000" font-size="8.2134" lengthAdjust="spacingAndGlyphs" textLength="30.3264" x="188.4345" y="374.3419">includes</text>
        <path d="M267.9277,346.3664 C248.4177,359.674 217.1808,380.9796 196.7332,394.9272 " fill="none" style="stroke: #A80036; stroke-width: 0.6318006318006318;"/>
        <polygon fill="#A80036" points="194.0462,396.7594,200.1676,395.6425,196.6557,394.9791,197.3191,391.4672,194.0462,396.7594" style="stroke: #A80036; stroke-width: 0.6318006318006318;"/>
        <text fill="#000000" font-size="8.2134" lengthAdjust="spacingAndGlyphs" textLength="30.3264" x="238.3468" y="374.3419">includes</text>
        <path d="M509.2819,270.5004 C509.5965,279.5035 510.879,291.9254 515.0755,302.0007 C517.4586,307.7223 521.1869,313.2929 525.0011,318.0952 " fill="none" style="stroke: #A80036; stroke-width: 0.6318006318006318;"/>
        <polygon fill="#A80036" points="527.1214,320.6805,525.47,314.6811,525.1183,318.2378,521.5616,317.8861,527.1214,320.6805" style="stroke: #A80036; stroke-width: 0.6318006318006318;"/>
        <text fill="#000000" font-size="8.2134" lengthAdjust="spacingAndGlyphs" textLength="39.8034" x="515.7073" y="298.5258">displays to</text>
        <path d="M672.7476,270.4802 C658.8733,279.822 638.6999,292.6918 619.9544,302.0007 C606.3094,308.7761 590.7955,315.0385 577.0298,320.1321 " fill="none" style="stroke: #A80036; stroke-width: 0.6318006318006318;"/>
        <polygon fill="#A80036" points="573.9378,321.2675,580.1466,321.6802,576.9033,320.1788,578.4047,316.9354,573.9378,321.2675" style="stroke: #A80036; stroke-width: 0.6318006318006318;"/>
        <text fill="#000000" font-size="8.2134" lengthAdjust="spacingAndGlyphs" textLength="39.8034" x="642.6992" y="298.5258">displays to</text>
        <path d="M589.8567,270.5503 C579.2386,283.6014 562.362,304.3466 551.0117,318.2974 " fill="none" style="stroke: #A80036; stroke-width: 0.6318006318006318;"/>
        <polygon fill="#A80036" points="548.9596,320.8201,554.5086,318.0044,550.9533,318.3698,550.5879,314.8145,548.9596,320.8201" style="stroke: #A80036; stroke-width: 0.6318006318006318;"/>
        <text fill="#000000" font-size="8.2134" lengthAdjust="spacingAndGlyphs" textLength="39.8034" x="573.8329" y="298.5258">displays to</text>
        <path d="M692.7188,270.4574 C698.6515,297.623 713.0691,363.5956 719.6083,393.5404 " fill="none" style="stroke: #A80036; stroke-width: 0.6318006318006318;"/>
        <polygon fill="#A80036" points="720.2906,396.6665,721.5462,390.572,719.6165,393.5803,716.6083,391.6506,720.2906,396.6665" style="stroke: #A80036; stroke-width: 0.6318006318006318;"/>
        <text fill="#000000" font-size="8.2134" lengthAdjust="spacingAndGlyphs" textLength="30.9582" x="710.3019" y="336.4338">gets info</text>
        <path d="M608.4126,270.6053 C620.7726,287.8161 644.3608,320.0468 666.0758,346.2267 C680.1271,363.171 697.2362,381.7333 708.994,394.1994 " fill="none" style="stroke: #A80036; stroke-width: 0.6318006318006318;"/>
        <polygon fill="#A80036" points="711.2685,396.6091,709.1953,390.7421,709.097,394.3147,705.5244,394.2164,711.2685,396.6091" style="stroke: #A80036; stroke-width: 0.6318006318006318;"/>
        <text fill="#000000" font-size="8.2134" lengthAdjust="spacingAndGlyphs" textLength="30.9582" x="666.7076" y="336.4338">gets info</text>
    </g>
</svg>
